/* XPM */
static char *result[] = {
/* columns rows colors chars-per-pixel */
"64 64 15 1 ",
"  c #1E1638",
". c #24194C",
"X c #2A1B5D",
"o c #32257B",
"O c #453771",
"+ c #BE4A2F",
"@ c #F77622",
"# c #D77643",
"$ c #FEAE34",
"% c #FEE761",
"& c #146BB5",
"* c #504083",
"= c #8B73DA",
"- c #0099DB",
"; c #2CE8F5",
/* pixels */
"             ..       ..                      ..      ..        ",
"   X        XX. O    XX.           X         XX.     XX.        ",
" O      *  ooX O=O  XoX   =      O      *   XoX     XoX   *     ",
"          Xoo   O  .XX      #  *           .XX     .XX      #  *",
"         ;XX       ..      #%#           ; ..      ..      #%#  ",
"    o    X.                 #X      o    X                  #X  ",
"            *              XoX                             XoX  ",
"  %                X       XX     %        X       X       XX   ",
"      XX      o      o                XX     O       O          ",
"      XoX              *              XoX      *       *        ",
"    &  XX    ;               ..        XX                    .. ",
"*   -        X    o         XX. o   -     o       o         XX. ",
"   -;-  O                  .XX     -;-  O                  .XX  ",
"    -  O=O          %      ..       -  O=O  %       %      ..   ",
"    &   O X    XX                       O                       ",
"          X   XoX                                               ",
"   ..                     ..       ..                     ..    ",
"  XX.        ...  *  @   XX. O    XX.        ...  =  +   XX. O  ",
" XoX         XoX    @%@ ooX O=O  XoX         XoX    +#+ ooX O=O ",
".XX        * XXX  X  @ Xoo   O  .XX        * XXX  X  + Xoo   O  ",
"..           ...+ XX  .XX       ..           ...+ XX  .XX       ",
"               +%+XX  ..                       +%+XX  ..        ",
"             X. + XX     *                   X. + XX     *      ",
"   X                            X                               ",
" O      o         ;        *      O    + X        ;       *     ",
"          .. O   o   *              *  #  .. O   o   *      #  *",
"         ;X.O=O           ;           #%# X.O=O            #%#  ",
"    o    XX. O     XX     X    o      X#  X. O     XX       #X  ",
"          .     *  XXXX               X+X .     *  XXXX    XoX  ",
"  %                 XoX          %     XX           XoX    XX   ",
"      XX            XXXX    XX                      XXXX        ",
"      XoX      XX   XXXX   XoX                 XX   XXXX        ",
"       XX     XoX  *       XX        ..       XoX  X         .. ",
"*   -         XX               &   * .XX      XX            XX. ",
"   -;-  O       ;   . O    O  &;&     XX.       ;   . O    .XX  ",
"    -  O=O *       .o.    O=O  &       ..  *       .o.   . ..   ",
"        O           .      O                        .    .      ",
"               o                               o                ",
"                            X                               *   ",
"      XX    O                         XX    O                   ",
"      XX                       O      XX      ..      ..       O",
"                        O  ;                 XX.     XX.   ;    ",
"           ..       -  O=O    XX            XoX     XoX       XX",
"X   +   O  .XX    O-;-O O     XoX   +   O  .XX     .XX        Xo",
"X  +%+ O=O  XX. *   -          XX  +%+ O=O ..      ..          X",
"    +   O    ..        XX  o        +   O                  *    ",
"        ..            XoX               ..                      ",
"     ..XX.            XX             ..XX. X       X            ",
" *  .XXXX  XX     %         o    =  .XXXX    O       O      o   ",
"    .XoX.  XoX                      .XoX.      *       *        ",
"    XXXX.   #X      o    X          XXXX.                       ",
"   .XX..   #%#           -         .XX..  o       o             ",
"   .. -     #  *                   .. -                         ",
"     -;-  =      O      *  XX  o    &-;-&   %       %      XX  X",
"      - o          X       XoX        - o                  XoX  ",
"                            XX.                             XX. ",
"             ..       XoX    ..                              .. ",
"        *  * .XX      XX   $            X    ...     ...   +    ",
"      XX      XX.         $%$         XX     XoX     XoX  +%+   ",
"   * .XX       ..  *       $       * .XX   * XXX   * XXX   +    ",
"     ...                     o       ...     ...+    ...+    o  ",
"                       o                       +%+     +%+      ",
"                                             X. +    X. +       ",
"              XX    O                                           "
};
