/* XPM */
static char *result[] = {
/* columns rows colors chars-per-pixel */
"64 64 63 1 ",
"  c #3E54C4",
". c #2A1A7D",
"X c #413173",
"o c #4E3C85",
"O c #409231",
"+ c #3EB327",
"@ c #190A4A",
"# c #110632",
"$ c #6B80E8",
"% c #200C5D",
"& c #181044",
"* c #C04727",
"= c #3D4189",
"- c #D9783F",
"; c #FEE961",
": c #3F7182",
"> c #3544A6",
", c #3E6797",
"< c #579696",
"1 c #009BDD",
"2 c #5267D4",
"3 c #475ECC",
"4 c #3E5BB5",
"5 c #6883DC",
"6 c #4DA367",
"7 c #4AA55E",
"8 c #408D3F",
"9 c #5D90AB",
"0 c #3F8453",
"q c #6389C7",
"w c #6980E3",
"e c #6277E0",
"r c #5360B7",
"t c #409132",
"y c #27235D",
"u c #23EAF5",
"i c #367731",
"p c #8D75DC",
"a c #303581",
"s c #4D52AA",
"d c #181A32",
"f c #586EDA",
"g c #4968CF",
"h c #2E2E6D",
"j c #44499D",
"k c #1D1655",
"l c #6172D4",
"z c #46AA4E",
"x c #384AB4",
"c c #529D80",
"v c #306231",
"b c #FEB02D",
"n c #3F7B6C",
"m c #519E7A",
"M c #3F7D67",
"N c #233F32",
"B c #3F796F",
"V c #046BB7",
"C c #2A4456",
"Z c #406A71",
"A c #2E8EE2",
"S c #3E1A73",
"D c #2A3185",
/* pixels */
"#############@@#######@@######################@@######@@########",
"###%########%%@#X####%%@###########%#########%%@#####%%@########",
"#X######o##..%#XpX##%.%###p######X######o###%.%#####%.%###o#####",
"##########%..###X##@%%######-##o###########@%%#####@%%######-##o",
"#########u%%#######@@######-;-###########u#@@######@@######-;-##",
"####.####%@#################-%######.####%##################-%##",
"############o##############%.%#############################%.%##",
"##;################%#######%%#####;########%#######%#######%%###",
"######%%######.######.&&&&&&&&&&ddddddyy&&&&#X#######X##########",
"######%.%###########k           tOOOOOO0   D###o#######o########",
"####V##%%####u######k           tOOOOOO0   D#################@@#",
"o###1########%####.#k           tOOOOOO0   D######.#########%%@#",
"###1u1##X########NNNC           tOOOnnn:   >aaa&###########@%%##",
"####1##XpX#######OOO0           tOOO       2$$$h####;######@@###",
"####V###X#%####%%OOO0           tOOO       2$$$h################",
"##########%###%.%OOO0           tOOO       2$$$h################",
"###@@########vvvv,,,,       :MMMOOOO       2$$$rsss#######@@####",
"##%%@########OOOO           0OOOOOOO       2$$$$$$$&#*###%%@#X##",
"#%.%#########OOOO           0OOOOOOO       2$$$$$$$&*-*#..%#XpX#",
"@%%########o#OOOO           0OOOOOOO       2$$$$$$$&#*#%..###X##",
"@@#######>xxx4444       :888,4444444       2$$$$$$$elll%%#######",
"#########>              :OOt,              2$$$$$$$$$$$@########",
"#########>              :OOO,              2$$$$$$$$$$$##o######",
"###%#####>              :OOt,              2$$$$$$$$$$$#########",
"#X######.>              :OOOtOOO       3$$$$$$$6+++5$$$###o#####",
"#########>              :OOOOOOO       3$$$$$$$6+++5$$$#####-##o",
"#########g              :OOOOOOO       3$$$$$$$6+++5$$$####-;-##",
"####.####x              :8888888       3$$$$$$$6+++5$$$#####-%##",
"#########>                             3$$$$$$$6+++5$$$####%.%##",
"##;######>                             3$$$$$$$6+++5$$$####%%###",
"######%%#>                             3$$$$$$$6+++5$$$%########",
"######%.%>   ,,,,                   32gg999q$$$<666w$$$%########",
"#######%%>   OOOO                   $$$q+++c$$$$$$$$$$$######@@#",
"o###1####>   OOOO                   $$$q+++c$$$$$$$$$$$#####%%@#",
"###1u1##X>   OOOO                   $$$q+++c$$$$$$$$$$$####@%%##",
"####1##XpZBBB::::               ffff$$$5<<<<mmmq$$$$$$$##@#@@###",
"########XiOOO                   $$$$$$$$$$$<+++9$$$$$$$##@######",
"#########iOOO                   $$$$$$$$$$$<+++9$$$$$$$#########",
"#########iOOO                   $$$$$$$$$$$<+++9$$$$$$$#####o###",
"######%%#iOOO               feee$$$$$$$$$$$5qqq5$$$$$$$#########",
"######%%#iOOO               e$$$$$$$$$$$$$$$$$$$$$$$$$$@#######X",
"#########iOOO               e$$$$$$$$$$$$$$$$$$$$$$$$$$@###u####",
"#########iOOO               e$$$$$$$$$$$$$$$$$$$$$$$$$$#######%%",
"%###*###X##@%       3$$$$$$$$$$$+++++++z$$$<+++9$$$k%%########%.",
"%##*;*#XpX##%       3$$$$$$$$$$$+++++++z$$$<+++9$$$k@##########%",
"####*###X####       3$$$$$$$$$$$+++++++z$$$<+++9$$$&#######o####",
"########@@###       3$$$$$$$wwww+++++++z$$$<+++9www&############",
"#####@@%%@#######$$$$$$$$$$$7+++++++$$$$$$$$$$$h###%############",
"#o##@%%%%##%%####$$$$$$$$$$$7+++++++$$$$$$$$$$$h#####X######.###",
"####@%.%@##%.%###$$$$$$$$$$$7+++++++$$$$$$$$$$$s#######o########",
"####%%%%@###-%###rrrl$$$$$$$c7777777$$$$$$$lrrry################",
"###@%%@@###-;-######y$$$$$$$$$$$$$$$$$$$$$$j######.#############",
"###@@#1#####-##o####y$$$$$$$$$$$$$$$$$$$$$$j####################",
"#####1u1##p######X##y$$$$$$$$$$$$$$$$$$$$$$j;#######;######%%##%",
"######1#.##########%&======jsj========A=s==y###############%.%##",
"############################%%@#############################%%@#",
"#############@@#######%.%####@@##############################@@#",
"########o##o#@%%######%%###b############%####@@@#####@@@###*####",
"######%%######%%@#########b;b#########%%#####%.%#####%.%##*;*###",
"###o#@%%#######@@##o#######b#######o#@%%###o#%%%###o#%%%###*####",
"#####@@@#####################.#######@@@#####@@@*####@@@*####.##",
"#######################.#######################*;*#####*;*######",
"#############################################%@#*####%@#*#######",
"##############%%####X###########################################"
};
