/* XPM */
static char *_55e94e3d0e24ed9ace7bcfe79e28d24P193JUjHG9Udk9VO[] = {
/* columns rows colors chars-per-pixel */
"64 64 175 2 ",
"   c #010105",
".  c #01020C",
"X  c #121206",
"o  c #12140A",
"O  c #12180E",
"+  c #010513",
"@  c #010A15",
"#  c #020718",
"$  c #020C1B",
"%  c #0F1717",
"&  c #01121D",
"*  c #0F171A",
"=  c #0F191D",
"-  c #101612",
";  c #111A14",
":  c #101C1B",
">  c #12211D",
",  c #020E22",
"<  c #021324",
"1  c #021A27",
"2  c #0E1C23",
"3  c #02142B",
"4  c #031B2B",
"5  c #0D1C2B",
"6  c #101F22",
"7  c #021532",
"8  c #031A34",
"9  c #0A1D34",
"0  c #03173B",
"q  c #021B3C",
"w  c #091E3C",
"e  c #0F2025",
"r  c #0E222C",
"t  c #0F282F",
"y  c #112324",
"u  c #142821",
"i  c #10262A",
"p  c #122A2A",
"a  c #0C2234",
"s  c #0F2A36",
"d  c #05253C",
"f  c #0A213B",
"g  c #072A3E",
"h  c #0E2B3C",
"j  c #112D34",
"k  c #102E3D",
"l  c #133336",
"z  c #11323C",
"x  c #031C43",
"c  c #081F43",
"v  c #041D4B",
"b  c #041F50",
"n  c #052244",
"m  c #092242",
"M  c #062A47",
"N  c #0C2C44",
"B  c #04234C",
"V  c #09264D",
"C  c #0A2B4C",
"Z  c #0E3244",
"A  c #06304F",
"S  c #0D344B",
"D  c #0C394D",
"F  c #113542",
"G  c #123B45",
"H  c #103548",
"J  c #042353",
"K  c #052A54",
"L  c #0A2E53",
"P  c #04265A",
"I  c #052C5D",
"U  c #092F5C",
"Y  c #073155",
"T  c #0A3354",
"R  c #0C3A56",
"E  c #06325B",
"W  c #09325E",
"Q  c #0B3B5C",
"!  c #042760",
"~  c #052D63",
"^  c #063365",
"/  c #093664",
"(  c #073966",
")  c #0A3B62",
"_  c #06346B",
"`  c #08366A",
"'  c #063A6D",
"]  c #093C6B",
"[  c #063671",
"{  c #073C73",
"}  c #083C74",
"|  c #063B78",
" . c #083D79",
".. c #12414E",
"X. c #0D425D",
"o. c #134354",
"O. c #11465D",
"+. c #0C4264",
"@. c #0B436C",
"#. c #0F4A6C",
"$. c #114A64",
"%. c #124D69",
"&. c #145465",
"*. c #11506B",
"=. c #074072",
"-. c #094574",
";. c #0C4A74",
":. c #07437B",
">. c #09447B",
",. c #0A4B7D",
"<. c #0F5377",
"1. c #0E527B",
"2. c #115273",
"3. c #145C73",
"4. c #11547A",
"5. c #125B7E",
"6. c #15657C",
"7. c #16687C",
"8. c #084780",
"9. c #074E84",
"0. c #0A4882",
"q. c #0C4E80",
"w. c #0D4F86",
"e. c #0B4F8A",
"r. c #0C4C88",
"t. c #0C5383",
"y. c #0E5285",
"u. c #0F5A84",
"i. c #0B558B",
"p. c #0F598A",
"a. c #0E5B8C",
"s. c #115B81",
"d. c #115F8D",
"f. c #0D5594",
"g. c #0D5C93",
"h. c #0E5B95",
"j. c #0D5E99",
"k. c #0D5E9A",
"l. c #0E5E9D",
"z. c #13628C",
"x. c #156D8B",
"c. c #0E6394",
"v. c #0E619A",
"b. c #0D6798",
"n. c #126C94",
"m. c #136A98",
"M. c #126A9C",
"N. c #167B9C",
"B. c #0E66A4",
"V. c #0F6AA1",
"C. c #0F68A2",
"Z. c #116EA2",
"A. c #106CA7",
"S. c #116FA9",
"D. c #1173A4",
"F. c #1173A9",
"G. c #127AAC",
"H. c #1174B1",
"J. c #1277B4",
"K. c #127BB0",
"L. c #117AB6",
"P. c #1684AD",
"I. c #1482B3",
"U. c #1587B8",
"Y. c #1382BE",
"T. c #168DBD",
"R. c #1487C2",
"E. c #148DC7",
"W. c #1792C3",
"Q. c #1798C3",
"!. c #1490C9",
"~. c #179BC8",
"^. c #1AAAD6",
"/. c #19ABDC",
"(. c #1BB4E1",
/* pixels */
"X X X X X X X X X X X X X X X X X X X X X X X X X X X X X X X X X X X X X X X X X X X X X X X X X X X X X X X X X X X X X X X X ",
"X X X X X X X X X X X X X X X X X X X X X X X X X X X X X X X X X X X X X X X X X X X X X X X X X X X X X X X X X X X X X X X X ",
"X X X X X X X X X X X X X X X X X X X X X X X X X X X X X X X X X X X X X X X X X X X X X X X X X X X X X X X X X X X X X X X X ",
"X X X X X X X X X X X X X X X X X X X X X X X X X X X X X X X X X X X X X X X X X X X X X X X X X X X X X X X X X X X X X X X X ",
"X X X X X X X X X X X X X X X X X X X X X X X X X X X X X X X X X X X X X X X X X X X X X X X X X X X X X X X X X X X X X X X X ",
"X X X X X X X X X X X X X X X X X X X X X X X X X X X X X X X X X X X X X X X X X X X X X X X X X X X X X X X X X X X X X X X X ",
"X X X X X X X X X X X X X X X X X X X X X X X X X X o X o o o X o X o X X o o o X X X X X X X X X X X X X X X X X X X X X X X X ",
"X X X X X X X X X X X X X X X X X X X X X X o o X o o o o o o o o - O O O o o o o X X X X X X X X X X X X X X X X X X X X X X X ",
"X X X X X X X X X X X X X X X X X X X X o o o o O - - - - - - - - - * : ; ; ; ; o o o X X X X X X X X X X X X X X X X X X X X X ",
"X X X X X X X X X X X X X X X X X X X o o o - ; - : : 6 = : 5 6 2 * 6 6 y 6 u > ; O o o X X X X X X X X X X X X X X X X X X X X ",
"X X X X X X X X X X X X X X X X o X o o o ; 6 6 i 5 a k k 9 N H H 5 5 9 k k l j i > ; o o o o X X X X X X X X X X X X X X X X X ",
"X X X X X X X X X X X X X X X X o o o - ; 6 j F H H S Q ) L L ) ) L f c V o.o.o.G j u > - o o X X X X X X X X X X X X X X X X X ",
"X X X X X X X X X X X X X X X X o ; : y j G o.%.4.;.4.d.d.,.q.] U U V c b U #.%.O.o.k i : - - o X X X X X X X X X X X X X X X X ",
"X X X X X X X X X X X X X X X o ; : y F R %.s.z.m.M.Z.L.L.C.S.v.} P b V V V / } @.2.$.k i = ; - X X X X X X X X X X X X X X X X ",
"X X X X X X X X X X X X o o o - : p N H Q ;.y.w.w.h.S.Y.!.R.Y.J.l. .P b b b b U / ;.4.O.k i 2 ; o o X X X X X X X X X X X X X X ",
"X X X X X X X X X X X X o o o : 5 H R ) W U U J b J / 0.B.L.R.E.H.f.[ P ! ! b v P ` 0.2.W H s 2 - o o X X X X X X X X X X X X X ",
"X X X X X X X X X X X X o - % 2 9 m V v v v v v v x 0 v ~ e.j.F.A.r.~ v ! [ ! v v P `  .@.Q N 5 = - o o o X X X X X X X X X X X ",
"X X X X X X X X X X o o o - * 5 9 c c v v b b b b x 0 7 v I [ } } ! b 0 x ~ ~ b v v I _ ` / C 9 5 = ; o X X X X X X X X X X X X ",
"X X X X X X X X X X X o - * 5 9 c v V b v V b v x 0 7 3 0 B ` U v 0 0 7 7 x b v v x x b P ! J c a 2 * o o o X X X X X X X X X X ",
"X X X X X X X X X X o - 2 5 9 c c b v b b ! b v 0 7 7 3 , 7 c v 0 7 3 , 3 3 x x x x x c b P b c c 9 2 ; o o o X X X X X X X X X ",
"X X X X X X X X X o - % 6 9 c c x v b v v v b b K M n 8 7 7 7 3 , , , , 7 , 7 x v v x x v b b v V f 5 * - X X X X X X X X X X X ",
"X X X X X X X X o o - 2 5 9 v v v I _ _ ` ` ] } @.@.+.K 9 < < < $ # , , , , 7 7 x x x x v b b v V c 5 2 - - o X X X X X X X X X ",
"X X X X X X X X o o - 2 5 0 v P ~ | :. .,.y.5.;.+.Q T M 8 3 $ $ , , # # # , , 0 7 x x 0 x v b b c c c 5 * - o o X X X X X X X X ",
"X X X X X X X X o o * 5 9 v b ! >.f.w.-.@.) Y L A A n a < & $ $ , 2 , , # , , 7 3 0 0 0 0 v b b c c c w 2 * o X X X X X X X X X ",
"X X X X X X X X % % * 5 c U ` |  . .^ V B n w d 7 3 < $ # + + # # $ * $ $ # $ , 7 3 7 7 7 x b b b J V C s 6 ; o X X X X X X X X ",
"X X X X X X X o o % 5 w U } [ ` ~ ~ P x 3 3 < < & $ + . . + . . + + @ $ $ $ # , 7 3 < 3 7 0 b ! ~ / ~ L H p ; o X X X X X X X X ",
"X X X X X X X X - * 9 C ` ^ J b P P c , , , , # + . + . . . . . . + . + $ $ # $ 4 8 , < 3 7 b [ | [ ~ L H k : O X X X X X X X X ",
"X X X X X X X o - : 9 C J v v v J c 3 , , , # + + + + + . . .       . + @ $ + # 3 8 3 , 3 7 P } [ ~ U U R N > ; o X X X X X X X ",
"X X X X X X X X - * 9 c v v x x c 0 7 7 < $ + @ + + . . .             . + $ @ @ < 8 < , 3 7 K  .[ ! ~ ` ) G y ; o X X X X X X X ",
"X X X X X X o X - 2 9 c J b b J B x q 3 $ @ + @ . .                       @ @ + < 4 < , < 7 K  .[ ~ [ -.) H 6 ; X X X X X X X X ",
"X X X X X X X o - , 9 V J P I U K B 8 $ $ @ @ + .     .                   + @ + $ < < , < 0 I  .| [ } ,.] F 2 - o X X X X X X X ",
"X X X X X X X o - 2 w b ! ` _ ! J 8 < $ @ + + . .       .                 . + + & < & , < q U } | | 0.g.#.N 2 - o X X X X X X X ",
"X X X X X X X o ; 2 f K ' [ _ I q , $ $ @ + + + . . . .                   . + @ & & < < < n / { :.8.j.A.4.f : - o X X X X X X X ",
"X X X X X X X o ; 5 f K [ _ ^ B 3 , < , $ @ + .     .                     + + @ & < < & 3 K / { e.j.G.D.+.9 = - o X X X X X X X ",
"X X X X X o X - % 2 9 K ~ _ I x 3 3 3 < , $ + . . .                       . + @ $ & < < q K I -.F.E.T.a.L 5 = - o o X X X X X X ",
"X X X X X X o o % 2 f K I P P x 7 7 8 3 $ @ @ . @ @                 .   + + @ @ & < < 3 x B / G.(./.F./ m 5 = - o X X X X X X X ",
"X X X X X X o o - 2 N ] ( K J v q q 8 3 $ $ + + @ @                   . . + @ + & < 4 8 q B c.^.(.G.} B w 2 ; o X X X X X X X X ",
"X X X X X X X o o 2 H #.] J J b 0 q 7 < $ $ @ + @ @ @ . .             . + . + $ < < 3 3 q -.P.W.S.} V B w y : o X X X X X X X X ",
"X X X X X X X X o : k Q / J J v x 0 7 3 @ @ @ @ @ & @ . @ .     . . . . + + @ * < 4 1 7 / c.G.C.:.J B m 9 2 - o o X X X X X X X ",
"X X X X X X X X - : y N L J v x x x 8 3 & & @ @ @ @ & @ . @ @ . . . . + + @ & 3 3 < 8 Y -.t.9.{ P J B q 5 6 ; o o X X X X X X X ",
"X X X X X X X X o ; = a m V v v x x x 7 < $ < $ & & @ @ @ @ @ @ @ @ @ @ & & 1 & < d L ( ( ~ J P I K n 9 2 > O o X X X X X X X X ",
"X X X X X X X X o o % 5 f n x x x v B x 4 3 < & & 1 & & & & & & & & & & & < 1 8 A @.;.( J v J ! P J m 9 y ; O X X X X X X X X X ",
"X X X X X X X X o o - 2 9 q c v x B J J B x q 4 < < a 4 1 1 r 1 1 1 1 1 a d Y +.@.@./ K v v J J K K Z s y ; O X X X X X X X X X ",
"X X X X X X X X X o o % r f n B v J I ~ ^ E Y n 4 < 8 d g d d Z Z D ..X.X.X.Q E K B v B I _ ^ ( @.) H j > ; O X X X X X X X X X ",
"X X X X X X X X X o o % 2 s m B B J _ { -.,.;.E B 7 4 8 n n d A R X.+.X.Q Y M n q x B ( :.,.:.;.#.O.G p > O X X X X X X X X X X ",
"X X X X X X X X X X o o : r a n B K { i.b.b.a.;.( M d q d d q q n A Y Y Y B n B Y -.g.C.C.g.t.<.%.o.l u : o X X X X X X X X X X ",
"X X X X X X X X X X o o ; = 2 a d K -.c.G.I.D.p.@.( K I K B n d d x d B J ^ { i.D.I.L.D.b.t.;.+.G l u > O X X X X X X X X X X X ",
"X X X X X X X X X X o o o ; = 2 w C @.p.D.T.U.D.c.=.^ E E K B B B B B J E =.9.i.g.i.,.:.' / Y s r > > O o X X X X X X X X X X X ",
"X X X X X X X X X X X X X o - = r N Q -.1.D.T.W.T.b.' / I I P P I ^ ^ I ~ ^ { 9.i.0.=.( T M a 2 = ; O o X X X X X X X X X X X X ",
"X X X X X X X X X X X X X o o - * r Z R +.1.n.I.~.~.b.^ P K K P ~ ^ ( ' :.,.,.,.,.;.) T N r 2 % ; o o X X X X X X X X X X X X X ",
"X X X X X X X X X X X X X o o - % * r z Y X.;.p.D.T.Q.b.' I I P K J ' ,.,.t.1.-.@.) T h r 2 % % O o o X X X X X X X X X X X X X ",
"X X X X X X X X X X X X X X X X O ; = e s S R +.3.n.P.P.b.-.( ( ' ' { 1.i.1.<.@.R N a 2 % % O o o X X X X X X X X X X X X X X X ",
"X X X X X X X X X X X X X X X X o o O % e t s Z +.3.x.N.P.x.5.;.1.u.u.5.5.#.R N a 5 = % - o O o X X X X X X X X X X X X X X X X ",
"X X X X X X X X X X X X X X X X X o O O ; y e t z o.&.3.7.6.*.X.X.$.*.X.D g s 2 = % % O o o o X X X X X X X X X X X X X X X X X ",
"X X X X X X X X X X X X X X X X X X X o o ; ; * > p l z z ....G z z G z t e * % % - O X X X X X X X X X X X X X X X X X X X X X ",
"X X X X X X X X X X X X X X X X X X X o o o O O % ; * > > > y e p p p p > % O O X o o X X X X X X X X X X X X X X X X X X X X X ",
"X X X X X X X X X X X X X X X X X X X X X X o o o O O % ; ; ; ; % ; ; ; O O O o X X X X X X X X X X X X X X X X X X X X X X X X ",
"X X X X X X X X X X X X X X X X X X X X X X X X X X X O O O O O o O o O o X X X X X X X X X X X X X X X X X X X X X X X X X X X ",
"X X X X X X X X X X X X X X X X X X X X X X X X X X o X X X X o o o X X X o X X X X X X X X X X X X X X X X X X X X X X X X X X ",
"X X X X X X X X X X X X X X X X X X X X X X X X X X X X X X X X X X X X X X X X X X X X X X X X X X X X X X X X X X X X X X X X ",
"X X X X X X X X X X X X X X X X X X X X X X X X X X X X X X X X X X X X X X X X X X X X X X X X X X X X X X X X X X X X X X X X ",
"X X X X X X X X X X X X X X X X X X X X X X X X X X X X X X X X X X X X X X X X X X X X X X X X X X X X X X X X X X X X X X X X ",
"X X X X X X X X X X X X X X X X X X X X X X X X X X X X X X X X X X X X X X X X X X X X X X X X X X X X X X X X X X X X X X X X ",
"X X X X X X X X X X X X X X X X X X X X X X X X X X X X X X X X X X X X X X X X X X X X X X X X X X X X X X X X X X X X X X X X "
};
