/* XPM */
static char *fcd281b1f4754f99cccc982efd6b97f6OawzxHEvUGcq6kpP[] = {
/* columns rows colors chars-per-pixel */
"64 64 166 2 ",
"   c None",
".  c #000101",
"X  c #030609",
"o  c #04090D",
"O  c #060D13",
"+  c #071016",
"@  c #081116",
"#  c #07121A",
"$  c #09151C",
"%  c #0B191F",
"&  c #091721",
"*  c #0B1A24",
"=  c #0C1E2A",
"-  c #0D2027",
";  c #0E212D",
":  c #10242E",
">  c #0E2432",
",  c #0E2639",
"<  c #0F293B",
"1  c #102634",
"2  c #112936",
"3  c #10273A",
"4  c #122B3B",
"5  c #15313D",
"6  c #122E42",
"7  c #122F49",
"8  c #153244",
"9  c #183443",
"0  c #193847",
"q  c #133048",
"w  c #13314A",
"e  c #13314B",
"r  c #143348",
"t  c #15334A",
"y  c #16344B",
"u  c #16364B",
"i  c #13304C",
"p  c #13314C",
"a  c #12314D",
"s  c #14334D",
"d  c #14344E",
"f  c #17374F",
"g  c #15354A",
"h  c #18374A",
"j  c #18374A",
"k  c #17394D",
"l  c #18384E",
"z  c #193A4D",
"x  c #173751",
"c  c #163652",
"v  c #173951",
"b  c #173953",
"n  c #173A52",
"m  c #163A52",
"M  c #193951",
"N  c #1A3B51",
"B  c #193A53",
"V  c #193C53",
"C  c #1A3D53",
"Z  c #1C3C51",
"A  c #1C3E53",
"S  c #193D54",
"D  c #193D57",
"F  c #193D56",
"G  c #193F56",
"H  c #1D3E55",
"J  c #1D3F56",
"K  c #1A3D53",
"L  c #173C5B",
"P  c #173E5B",
"I  c #173E59",
"U  c #183D59",
"Y  c #1B3F59",
"T  c #1B3F59",
"R  c #1A3F5A",
"E  c #193E5C",
"W  c #193E59",
"Q  c #174056",
"!  c #1D4055",
"~  c #1B4156",
"^  c #1B4059",
"/  c #1D4159",
"(  c #1C415A",
")  c #1D435A",
"_  c #1F435B",
"`  c #1B425E",
"'  c #1E435D",
"]  c #1D445D",
"[  c #1E445C",
"{  c #1D445E",
"}  c #1D465F",
"|  c #1B435C",
" . c #1E485E",
".. c #21455A",
"X. c #20495E",
"o. c #1B4260",
"O. c #1B4663",
"+. c #1F4661",
"@. c #1F4763",
"#. c #1A4465",
"$. c #1B4664",
"%. c #1C4564",
"&. c #1F4764",
"*. c #1C4662",
"=. c #1D4865",
"-. c #1D4967",
";. c #1E4967",
":. c #1D4965",
">. c #1D4C6B",
",. c #1F516E",
"<. c #1F4F72",
"1. c #1E4E72",
"2. c #1F5173",
"3. c #204460",
"4. c #204660",
"5. c #204965",
"6. c #204966",
"7. c #224C65",
"8. c #204C6B",
"9. c #204E6F",
"0. c #214D6B",
"q. c #235167",
"w. c #24536D",
"e. c #28576F",
"r. c #214F71",
"t. c #225474",
"y. c #285671",
"u. c #255A75",
"i. c #295A76",
"p. c #22567A",
"a. c #245A7C",
"s. c #295C7B",
"d. c #26627E",
"f. c #2A627D",
"g. c #245D83",
"h. c #295F83",
"j. c #275F88",
"k. c #256186",
"l. c #2A6483",
"z. c #2C6884",
"x. c #25638B",
"c. c #2A658B",
"v. c #2C6A8D",
"b. c #276791",
"n. c #2B6792",
"m. c #276A94",
"M. c #2A6B93",
"N. c #276E9A",
"B. c #2A6E99",
"V. c #2D7295",
"C. c #2D729C",
"Z. c #2F799E",
"A. c #317295",
"S. c #32759B",
"D. c #307A9E",
"F. c #2C75A3",
"G. c #2C78A5",
"H. c #2E7CAA",
"J. c #317CA5",
"K. c #327DAB",
"L. c #2F82B2",
"P. c #3383B4",
"I. c #3387B9",
"U. c #348CBD",
"Y. c #368EC1",
"T. c #3791C4",
/* pixels */
". . . . . . . . . . . . . . . . . . . . . . . . . . . . . . . . . . . . . . . . . . . . . . . . . . . . . . . . . . . . . . . . ",
". . . . . . . . . . . . . . . . . . . . . . . . . . . . . . . . . . . . . . . . . . . . . . . . . . . . . . . . . . . . . . . . ",
". . . . . . . . . . . . . . . . . . . . . . . . . . . . . . . . . . . . . . . . . . . . . . . . . . . . . . . . . . . . . . . . ",
". . . . . . . . . . . . . . . . . . . . . . . . . . . . . . . . . . . . . . . . . . . . . . . . . . . . . . . . . . . . . . . . ",
". . . . . . . . . . . . . . . . . . . . . . . . . . . . . . . . . . . . . . . . . . . . . . . . . . . . . . . . . . . . . . . . ",
". . . . . . . . . . . . . . . . . . . . . . . . . X . X X             . . . . . . . . . . . . . . . . . . . . . . . . . . . . . ",
". . . . . . . . . . . . . . . . . . . . X X X X o o o o                     X . . . . . . . . . . . . . . . . . . . . . . . . . ",
". . . . . . . . . . . . . . . . . . X X X O O @ + + # $ + O                 o o o X X X . . . . . . . . . . . . . . . . . . . . ",
". . . . . . . . . . . . . . . X X . X o O $ % % & % * : ; = * * * * = & @ @ @ # O O O o o X . . . . . . . . . . . . . . . . . . ",
". . . . . . . . . . . . . . . X X o o @ $ - - : 1 1 1 1 3 4 4 4 4 4 6 3 = & = = & * = & # O o X X . . . . . . . . . . . . . . . ",
". . . . . . . . . . . . . X X o o @ # $ - : 1 2 H J 8 6 S $.^ S f F 9 6 = = * > > > > > = # O o X . . . . . . . . . . . . . . . ",
". . . . . . . . . . . . X O O $ * = = = : 1 5 9 M ` J M ;.;.^ / J U c 3 = 3 6 6 i i 7 7 1 * # O o X X . . . . . . . . . . . . . ",
". . . . . . . . . . X X O O + & * = 1 6 4 U +.9 M S H A ~ H / { ' J x 3 6 7 7 7 i #.c 6 3 : $ & + O X X . . . . . . . . . . . . ",
". . . . . . . . . . X X O # & = < 6 6 v $.$.;.+.H { A H ../ { ..' Y z t c a 7 L c L U y 9 3 1 * & + o X X X . . . . . . . . . . ",
". . . . . . . . X X o O & * > < g U S =.$.$.r.8.+.5.6.5.6.4. .] H / S J c 6 7 L r.o.U c c 9 3 1 > - $ O o X X . . . . . . . . . ",
". . . . . . . . o o & & > 6 w L ;.^ ~ H ' 8.8.p.p.8.t.r.7.0.:.:.' S / S f 9 x >.%.o.H c Y H 9 1 4 < * $ + O X X . . . . . . . . ",
". . . . . . X X O # = < 7 ` >.2.2.2.:.) ~ 5.w.t.g.0.;.0.;.;.} Q ^ Q ~ z 9 k $.2.^ ~ #.>.*.^ z 0 8 r > * * # O o . . . . . . . . ",
". . . . . . X O $ ; < r Q ` 2.g.m.m.a.y.7.0.8.;.p.t.;.$.-.] | | ] *.~ 5 5 Q ,.>.^ ` 1.1.>.=.` S z z r 1 > # O o X X X . . . . . ",
". . . . . X X + - < r Q -.Q $.k.G.L.m.p.t.0.6.p.=.{ 0.^ ~ ~ V V O.>.-.q 4 ~ ,.>.` r $.;.1.r.r.` :.Q g : * & & # o X . . . . . . ",
". . . . . X O & 1 5 Q O.-.-.2.F.L.I.V.2.w.0.0.t.*.~ { z M k k z k -.-.~ 4 8 m #.L r U +.8.8.*.A Q Q k 5 , > = # O X . . . . . . ",
". . . . X o + * < 0 } ,.a.2.k.H.U.Y.H.x.0.w.t.p.0.=.8.:.Y Y 6...k k } >.9 2 k Q o.q h *.8.0.H Z ~  .,.Q Q - - & O o X X . . . . ",
". . . . X O $ ; 2 F -.O.a.a.x.G.I.I.L.m.0.p.t.>.:.5.{ / J H _ 3.k S k ] Q 4 z ` -.v S 0.r.3.H ..,.>.,.>.0 2 > - # O X . . . . . ",
". . . X o + * 1 g ] ] ~ -.>.g.N.L.U.L.N.x.2.t.;.;.*.H z y 9 9 9 8 0 k k v r 8 V *.$.{ w.y.6.J ..X. .,. .Q 2 - - * # O X . . . . ",
". . . X o $ > r v Q ^ ~ | ] 2.g.G.L.U.U.F.m.g.*.F 9 4 4 3 3 1 1 < 8 z Q k v 8 q g J 8.0.0.w.6._ X.,.d.,.Q 5 : ; ; & O o . . . . ",
". . . X o % < k Q ] ^ | k 0 S 2.F.I.T.H.x.g.>.F r 5 < > - % % % * > 4 g 0 F 8 8 4 z 0.r.0.j.r._ q.e.u.,. .0 2 2 , * # o X . . . ",
". . . X O * 8 k ~ :.S 0 0 0 ` g.H.I.H.b.k.2.m d r < > = % @ @ O + % = 2 4 w r 8 2 9 J 4.0.c.n.y. .X.,.2.y.) 9 2 6 = # O . . . . ",
". . . X o * 4 V *.*.k z *.] a.m.N.m.k.g.2.-.0 6 < = * + @ o o X o o $ - : < r 6 4 4 / S r.n.M.h.q.q.q.d.2.,.z 4 > = & O o . . . ",
". . . X o * 4 *.,.-.*.*.$.Q >.p.m.m.x.g.2.S 8 6 = $ + o X X X X X X o % ; 1 r 6 6 8 S ^ h.M.F.l.d.d.e.d.d.e.Q 9 , = # O o X . . ",
". . . X O * r Q >.2.^ F -.2.:.:.1.2.2.2.-.Q 8 ; & $ O X X . X X . X o O * , < 5 8 v k *.h.S.J.S.V.V.z.z.f.e...0 4 = & O o . . . ",
". . X X O > | >.,.2.~ S *.>. .~ Q -.,.:.~ Q 4 * & + o X . X X . . . X o $ ; , 1 q E ^ =.n.K.K.P.P.L.A.A.f.e.) 0 5 : & + o X . . ",
". . X X # < *.w.p.v.a.:.v S z !  .,.,.O.Q z 1 * & + o X . . . . . . X X # - > > 6 ` $.t.n.P.P.P.P.J.A.S.z.e...j 5 1 * O O X X . ",
". . . o $ = q =.p.B.N.=.h 0 0 ! O.2.2.Q A 0 = * $ O X X X . . . . X X X + * ; ; 6 F 8.p.M.U.Y.P.K.P.S.A.z.y...A l 1 * O X . . . ",
". . X o # & > 3.M.K.c...Z Z ..4.>.t.7.) z 8 - * % o o X . X . X . X X o @ - - : 6 k a.k.N.U.U.K.S.V.V.l.d.d. .~ k 2 % + X X . . ",
". . X O & * 3 3.p.c.t.e.e.7.t.e.e.w.:.] ~ 8 - * % @ o X X . . . . . X o @ % * 1 q *.b.C.F.H.N.l.v.z.z.f.z.z.w.} k 1 % o X . . . ",
". . X O $ > 3 9 Y t.t.e.s.i.i.e.q.e.w.:.` 8 > * % @ O o . X . . X X X o $ % - 2 a 2.N.b.m.F.h.k.l.d.v.D.V.V.l.>.Q 2 % O X . . . ",
". . X o O = 3 3 H 0.i.s.y.y.e.q.w.s.t.{ ^ k < = - $ @ o X X . X X X o @ $ * 1 9 V j.g.2.N.N.a.p.u.s.l.A.L.V.d. .Q < * + X X . . ",
". . X o + * 3 3 H ..s.n.e.w.q.7.7.s.u.| ~ F 4 ; : * $ @ O o X X o o + # $ = 3 H >.b.1.2.G.b.,.:.a.u.u.J.J.V.l. .Q < % o X . . . ",
". . . o @ * 3 q H Z e.s.7.......:.s.a. .~ ^ w < 1 = * @ # # O O + + # & : 3 x 8.g.b.2.g.C.x.>.:.u.u.l.V.Z.V.d.O.0 : % o X . . . ",
". . X o @ * 1 9 Z ..7.e.7...H ..5.p.a.,.:.^ v 4 1 > ; * & $ $ $ & - ; , r L 1.g.b.N.m.k.>.-.2.a.k.v.v.m.M.v.s.} 5 ; % X X . . . ",
". . . . o & : 4 5 Z _ w.5.5.=.0.] >.2.u.>.*.Q q 3 6 3 3 - - - * ; < 7 m ` -.>.g.x.m.b.1.P L 1.g.m.v.s.v.S.z.y.| 5 - @ X X . . . ",
". . . X O + = : 2 5 5 H H H ;.*.h h ;.t.0.;.] r < m g < < < , > , < m Q $.$.#.1.g.x.p.>.P V P *.j.l.a.c.V.k.7.S 2 * O X X . . . ",
". . . . X O & * - - : 5 x H 9 9 5 S ;.8.$.=.*.` 6 5 Q r 6 r r a k g m ` *.-.>.1.t.2.1.>.*.v q S 0.g.l.l.v.s.~ 5 ; $ o X . . . . ",
". . . X X O # # % % - = 6 u 4 5 8 j ' p.2.=.| Q Q 7 d m < g m Q Q >.#.$.-.2.2.>.8.>.r.g.2.*.k Q t.0.7.i.l.q.h 2 - $ o . . . . . ",
". . . . X o # # $ $ % * : 4 2 4 f J =.g.a.a.2.2.Q m 7 Q Q a a Q #.#.>.>.1.2.;.^ F #.g.j.g.O.F O.p.0.6.a.a./ 5 1 * + X X . . . . ",
". . . . . X o O & & & & * > 1 8 U ;.0.p.x.B.x.p.-.O.Q k I ` r m #.#.$.Q #.Q k 9 9 j 7.a.2.:.| O.` { >.t.>.A 5 1 % O o . . . . . ",
". . . . . X X O # & & % * = < t U / *.*.g.n.h.{ >.2.2.,.Q I ` F #.>.-.Q *.Q O.k 9 j :.u.u.t.} ] ^ ` 7.*.' 9 2 * + o X . . . . . ",
". . . . . . X o O + $ & * * 4 w S z A { 0.t.$.' >.2.g.g.2.>.P z 7 Q Q g P $.] V 5 9 / t.>.} Q Q S ] { S j 1 - $ O X X . . . . . ",
". . . . . . X X o O + $ * ; < d g g S :.>.6.' ] >.>.2.g.2.>.F V 8 7 r g v *.v 9 5 5 h :.O.| Q 0 z h j j 4 = % + o X . . . . . . ",
". . . . . . . X X o + + & * = 7 7 d m Q Q S | ] ] ] t.t.2.t.^ v k V Q 7 m m 7 4 5 4 8 Q Q Q k 5 0 5 1 2 - % @ O X . . . . . . . ",
". . . . . . . . X X O O # & * > < 7 r k v k >.>.O.Q =.u.>.w.*.k V k Q g m g 5 4 2 : 4 8 5 5 : : ; 1 : - % % O o X . . . . . . . ",
". . . . . . . . . X o o O O & = , 7 a d u F $.2.t.~ ~ >.:.=.^ g k q d 7 6 > - - - - - 1 4 : ; - * - * % @ + X X X . . . . . . . ",
". . . . . . . . . . X o o O # & ; < 7 a q F #.#.a.0.~ ] { S / z 0 8 < 6 < > - * % % % * - - % - % @ @ @ o X X . . . . . . . . . ",
". . . . . . . . . . . o o o o # & * , 6 1 q v ` -.` h z z 9 f S q 4 > = - > - & % $ % @ + @ $ $ $ @ + X X X X . . . . . . . . . ",
". . . . . . . . . . . . X X o O # # = * ; , q F o.u 8 0 h h 9 z g 2 > * $ $ - - % $ + + + + + $ + + o X X X . . . . . . . . . . ",
". . . . . . . . . . . . . X X o O O # & = > q g m q 5 0 z z g 8 4 3 = $ @ O + $ + + O o o O O O o X X X . X . . . . . . . . . . ",
". . . . . . . . . . . . . . . X o O O O # & = = ; , 4 4 6 8 8 4 1 > = # @ O O O O + o o X o o X . X X . . . . . . . . . . . . . ",
". . . . . . . . . . . . . . . . X X X o o o + + * * - ; > < 1 2 ; = * & * & O O O O O X . o o . . X . . . . . . . . . . . . . . ",
". . . . . . . . . . . . . . . . . . . X X X X O + $ $ % * - * * * * & & & O O O o o o X X . X . . . . . . . . . . . . . . . . . ",
". . . . . . . . . . . . . . . . . . . . . X . X O O + + $ $ $ $ $ & & + O O o o o X X X . . . . . . . . . . . . . . . . . . . . ",
". . . . . . . . . . . . . . . . . . . . . X X . X X X o O o O O O O O O o o . X X . . . . . . . . . . . . . . . . . . . . . . . ",
". . . . . . . . . . . . . . . . . . . . . . . . . . X X X X X X X X X X X . . . . . . . . . . . . . . . . . . . . . . . . . . . ",
". . . . . . . . . . . . . . . . . . . . . . . . . . . . . . . . . X . . . . . . . . . . . . . . . . . . . . . . . . . . . . . . ",
". . . . . . . . . . . . . . . . . . . . . . . . . . . . . . . . . . . . . . . . . . . . . . . . . . . . . . . . . . . . . . . . ",
". . . . . . . . . . . . . . . . . . . . . . . . . . . . . . . . . . . . . . . . . . . . . . . . . . . . . . . . . . . . . . . . "
};
