/* XPM */
static char *result[] = {
/* columns rows colors chars-per-pixel */
"64 64 232 2 ",
"   c #241D00",
".  c #2A1E07",
"X  c #3B1E1C",
"o  c #2F1A17",
"O  c #1F3613",
"+  c #242302",
"@  c #292507",
"#  c #28340B",
"$  c #382517",
"%  c #213614",
"&  c #243916",
"*  c #29371A",
"=  c #2A3D19",
"-  c #293717",
";  c #373519",
":  c #272F19",
">  c #1E1A3A",
",  c #3D2324",
"<  c #3B3724",
"1  c #3F3337",
"2  c #2A3420",
"3  c #5A170A",
"4  c #650D07",
"5  c #720F0F",
"6  c #7B1216",
"7  c #6C120E",
"8  c #43211C",
"9  c #4A241D",
"0  c #45391D",
"q  c #6F2319",
"w  c #540938",
"e  c #4E0B2E",
"r  c #4C2422",
"t  c #442924",
"y  c #572D24",
"u  c #463529",
"i  c #56392C",
"p  c #4E263A",
"a  c #4A2836",
"s  c #52273B",
"d  c #453B37",
"f  c #533833",
"g  c #663530",
"h  c #761120",
"j  c #2D411A",
"k  c #284614",
"l  c #32451D",
"z  c #344A1E",
"x  c #394218",
"c  c #265519",
"v  c #275218",
"b  c #39501F",
"n  c #3B4C21",
"m  c #3B4622",
"M  c #3E5023",
"N  c #365723",
"B  c #38642B",
"V  c #3C6531",
"C  c #424D23",
"Z  c #474729",
"A  c #57492E",
"S  c #445425",
"D  c #4B5B2B",
"F  c #475529",
"G  c #55572B",
"H  c #574235",
"J  c #4E5732",
"K  c #544D37",
"L  c #6A4439",
"P  c #76493B",
"I  c #665535",
"U  c #7C5E3E",
"Y  c #6A512A",
"T  c #4D612E",
"R  c #476935",
"E  c #576936",
"W  c #49723E",
"Q  c #5A7239",
"!  c #59602E",
"~  c #686837",
"^  c #79733E",
"/  c #7B673B",
"(  c #0E1B41",
")  c #3E3D64",
"_  c #7E0C54",
"`  c #6B0B47",
"'  c #562949",
"]  c #483341",
"[  c #57374B",
"{  c #593352",
"}  c #6A3D49",
"|  c #652D5E",
" . c #6C345C",
".. c #7D3D55",
"X. c #7B3A5A",
"o. c #75365F",
"O. c #783D49",
"+. c #662D63",
"@. c #6D2E6D",
"#. c #682C64",
"$. c #6C3068",
"%. c #743463",
"&. c #713169",
"*. c #7A3D69",
"=. c #354273",
"-. c #5C4947",
";. c #664641",
":. c #7A4543",
">. c #765649",
",. c #6B4950",
"<. c #4E7A46",
"1. c #557746",
"2. c #647D48",
"3. c #79774F",
"4. c #5D617B",
"5. c #726271",
"6. c #87131C",
"7. c #891426",
"8. c #911522",
"9. c #A11A2D",
"0. c #B11D37",
"q. c #A71E32",
"w. c #8A312C",
"e. c #AA2732",
"r. c #C4313D",
"t. c #836C3E",
"y. c #80723B",
"u. c #AC543C",
"i. c #8B1353",
"p. c #B41950",
"a. c #932654",
"s. c #BE2344",
"d. c #BA2662",
"f. c #9C1D69",
"g. c #C42642",
"h. c #C9384E",
"j. c #894745",
"k. c #8B4A45",
"l. c #85434A",
"z. c #854845",
"x. c #8B5843",
"c. c #93534A",
"v. c #945A48",
"b. c #82435B",
"n. c #854857",
"m. c #995D54",
"M. c #88534E",
"N. c #9D664C",
"B. c #877942",
"V. c #957947",
"C. c #866B57",
"Z. c #9D6359",
"A. c #887D58",
"S. c #A2674C",
"D. c #AD7452",
"F. c #B37A53",
"G. c #A6734F",
"H. c #957865",
"J. c #A66D67",
"K. c #AA7260",
"L. c #D7454E",
"P. c #E25349",
"I. c #C97D68",
"U. c #5B8656",
"Y. c #688647",
"T. c #678451",
"R. c #779854",
"E. c #798552",
"W. c #659365",
"Q. c #718D67",
"!. c #8B844E",
"~. c #B88555",
"^. c #B09151",
"/. c #81A55D",
"(. c #A9A059",
"). c #8A9464",
"_. c #96926D",
"`. c #AF9275",
"'. c #8AA86B",
"]. c #B2AE7B",
"[. c #D19F5E",
"{. c #C59059",
"}. c #D2A25F",
"|. c #CAA25B",
" X c #C9927E",
".X c #C6906C",
"XX c #DCAD62",
"oX c #D6A661",
"OX c #CAA869",
"+X c #A2C072",
"@X c #B99F82",
"#X c #86B38D",
"$X c #8FBA95",
"%X c #BAA885",
"&X c #B5BC8C",
"*X c #9796AC",
"=X c #A797A7",
"-X c #8D808E",
";X c #C99D87",
":X c #C6A78D",
">X c #CEAB93",
",X c #C4AB95",
"<X c #D5B89A",
"1X c #CAB692",
"2X c #E5A082",
"3X c #CFBDA6",
"4X c #AEC49C",
"5X c #9CCBA9",
"6X c #A3CAA8",
"7X c #AAD8B8",
"8X c #A9D8B6",
"9X c #D9C39E",
"0X c #CEC096",
"qX c #D5C0B9",
"wX c #E3C9A7",
"eX c #ECD4AD",
"rX c #E7D3AE",
"tX c #F0D7AF",
"yX c #EED7B3",
"uX c #F1D9B5",
"iX c #E3CDB5",
"pX c #BCB9C0",
"aX c #C1BAC2",
"sX c #B2E1C3",
"dX c #EAD8C5",
"fX c #F2DFCB",
"gX c #E6DDDA",
"hX c #F6EAD9",
"jX c #EFE2D3",
"kX c #FFF4E9",
"lX c #F3EAE3",
"zX c None",
/* pixels */
"zXzXzXzXzXzXzXzXzXzXzXzXzXzXzXzXzXzXzXzXzXzXzXzXzXzXzXzXzXzXzXzXzXzXzXzXzXzXzXzXzXzXzXzXzXzXzXzXzXzXzXzXzXzXzXzXzXzXzXzXzXzXzXzX",
"zXzXzXzXzXzXzXzXzXzXzXzXzXzXzXzXzXzXzXzXzXzXzXzXzXzXzXzXzXzXzXzXzXzXzXzXzXzXzXzXzXzXzXzXzXzXzXzXzXzXzXzXzXzXzXzXzXzXzXzXzXzXzXzX",
"zXzXzXzXzXzXzXzXzXzXzXzXzXzXzXzXzXzXzXzXzXzXzXzXzXzXzXzXzXzXzXzXzXzXzXzXzXzXzXzXzXzXzXzXzXzXzXzXzXzXzXzXzXzXzXzXzXzXzXzXzXzXzXzX",
"zXzXzXzXzXzXzXzXzXzXzXzXzXzXzXzXzXzXzXzXzXzXzXzXzXzXzXzXzXzXzXzXzXzXzXzXzXzXzXzXzXzXzXzXzXzXzXzXzXzXzXzXzXzXzXzXzXzXzXzXzXzXzXzX",
"zXzXzXzXzXzXzXzXzXzXzXzXzXzXzXzXzXzXzXzXzXzXzXzXzXzXzXB.k z zXzXzXzXzXzXzXzXzXzXzXzXzXzXzXzXzXzXzXzXzXzXzXzXzXzXzXzXzXzXzXzXzXzX",
"zXzXzXzXzXzXzXzXzXzXzXzXzXzXzXzXzXzXzXzXzXzXzXj.v.G J R B B V B c zXzXzXzXzXzXzXzXzXzXzXzXzXzXzXzXzXzXzXzXzXzXzXzXzXzXzXzXzXzXzX",
"zXzXzXzXzXzXzXzXzXzXzXzXzXzXzXzXzXzXzXzXzXc.k.U E W.#X6X6X4X4X].!.!.F.F.D.S.zXzXzXzXzXzXzXzXzXzXzXzXzXzXzXzXzXzXzXzXzXzXzXzXzXzX",
"zXzXzXzXzXzXzXzXzXzXzXzXzXzXzXzXzXzXzXV.}.}.^.Y.5XsX7X4XOX`.D.K.J.K.n.b.b.b.....%.zXzXzXzXzXzXzXzXzXzXzXzXzXzXzXzXzXzXzXzXzXzXzX",
"zXzXzXzXzXzXzXzXzXzXzXzXzXzXzXzXzXzX1.|.XXXX!.#XsX$X3.n.*.&.@.@.@.@.@.@.@.@.@.@.@.zXzXzXzXzXzXzXzXzXzXzXzXzXzXzXzXzXzXzXzXzXzXzX",
"zXzXzXzXzXzXzXzXzXzXzXzXzXzXzXzXzXc ^ XXXXXX3.6XsXQ.,.$.' s p s p p p s p p p ' zXzXzXzXzXzXzXzXzXzXzXzXzXzXzXzXzXzXzXzXzXzXzXzX",
"zXzXzXzXzXzXzXzXzXzXzXzXzXzXzXzX# v V.[.~.G.T #XsXT.!.>.9 y 8 y 9 8 8 8 8 8 8 @ zXzXzXzXzXzXzXzXzXzXzXzXzXzXzXzXzXzXzXzXzXzXzXzX",
"zXzXzXzXzXzXzXzXzXzXzXzXzXzXzXzX# c z.c.z.c.~ W.sX5X%X:Xg r $ , r r r r 8 y 9 = zXzXzXzXzXzXzXzXzXzXzXzXzXzXzXzXzXzXzXzXzXzXzXzX",
"zXzXzXzXzXzXzXzXzXzXzXzXzXzXzX  + v L j.j.k.! U.7X8X&XiX@Xt t f o r $ u y f r Z zXzXzXzXzXzXzXzXzXzXzXzXzXzXzXzXzXzXzXzXzXzXzXzX",
"zXzXzXzXzXzXzXzXzXzXzXzXzXzXzX+ + k K j.j.j.U V 5XsX&XC.L f u f o 8 f ,X_., , < <.zXzXzXzXzXzXzXzXzXzXzXzXzXzXzXzXzXzXzXzXzXzXzX",
"zXzXzXzXzXzXzXzXzXzXzXzXzXzXzX# M z A k.j.j.x.N <.$X6X_.<X9X@XH.>.X t `.:.C.H.C.V zXzXzXzXzXzXzXzXzXzXzXzXzXzXzXzXzXzXzXzXzXzXzX",
"zXzXzXzXzXzXzXzXzXzXzXzXzXzXzXi ~ U.J z.j.j.l.F c B U._.rXyXiXiXwX`.-.>.;X<X>X,X<.Q.zXzXzXzXzXzXzXzXzXzXzXzXzXzXzXzXzXzXzXzXzXzX",
"zXzXzXzXzXzXzXzXzXzXzXzXzXzX| n.G.2.<.P j.j.k.I k c v ).jXpX4.H.3XwXwX<X<X-X3X<XR W zXzXzXzXzXzXzXzXzXzXzXzXzXzXzXzXzXzXzXzXzXzX",
"zXzXzXzXzXzXzXzXzXzXzXzXzXzX@.%.c.y.U.I j.j.l.x.z v c R jX*X( ( =XfXwXtX,X> =XtX2.c zXzXzXzXzXzXzXzXzXzXzXzXzXzXzXzXzXzXzXzXzXzX",
"zXzXzXzXzXzXzXzXzXzXzXzXzXzX#.@.X.x.b Z l.j.j.z.0 v c c 4XaX) ) *XkXwXeXwX4.=XdX).U.zXzXzXzXzXzXzXzXzXzXzXzXzXzXzXzXzXzXzXzXzXzX",
"zXzXzXzXzXzXzXzXzXzXzXzXzXzXzX+.&.O.# j g j.j.j.L k c v #XkXgXgXlXkXfXeXeXiXdXuX).W.zXzXzXzXzXzXzXzXzXzXzXzXzXzXzXzXzXzXzXzXzXzX",
"zXzXzXzXzXzXzXzXzXzXzXzXzXzXzX' @. .@ @ < l.z.l.z.0 k c Y.fXhXkXkXkXdX<X<X9XiXuX).V zXzXzXzXzXzXzXzXzXzXzXzXzXzXzXzXzXzXzXzXzXzX",
"zXzXzXzXzXzXzXzXzXzXzXzXzXzXzXzX' ' .   @ ' &.&.&.} # & B 0XyXyXuXfXyX<X:X:X<X<XT.V zXzXzXzXzXzXzXzXzXzXzXzXzXzXzXzXzXzXzXzXzXzX",
"zXzXzXzXzXzXzXzXzXzXzXzXzXzXzXzXzX.       . | @.@.&.f + k ).tXtXyXwXwX>X:X:X:X:XW $XzXzXzXzXzXzXzXzXzXzXzXzXzXzXzXzXzXzXzXzXzXzX",
"zXzXzXzXzXzXzXzXzXzXzXzXzXzXzXzXzXzX        , +.&.@. .;   b 0XyXwX>X;X;X;X;X:X%XU.zXzXzXzXzXzXzXzXzXzXzXzXzXzXzXzXzXzXzXzXzXzXzX",
"zXzXzXzXzXzXzXzXzXzXzXzXzXzXzXzXzXzXzXzX      t #.@.@.{ @ + I %X<X>X`.I.2X;X>X_.W.zXzXzXzXzXzXzXzXzXzXzXzXzXzXzXzXzXzXzXzXzXzXzX",
"zXzXzXzXzXzXzXzXzXzXzXzXzXzXzXzXzXzXzXzXzX    @ a #.@.@.[ : + # I ).:XeX<X>X_.1.Q.zXzXzXzXzXzXzXzXzXzXzXzXzXzXzXzXzXzXzXzXzXzXzX",
"zXzXzXzXzXzXzXzXzXzXzXzXzXzXzXzXzXzXzXzXzXzXzX    , | @.@.| u +   @ C 3.E.!.S = zXzXzXzXzXzXzXzXzXzXzXzXzXzXzXzXzXzXzXzXzXzXzXzX",
"zXzXzXzXzXzXzXzXzXzXzXzXzXzXzXzXzXzXzXzXzXzXzXzXzX  $ p -.,.-.H ; @       + + zXzXzXzXzXzXzXzXzXzXzXzXzXzXzXzXzXzXzXzXzXzXzXzXzX",
"zXzXzXzXzXzXzXzXzXzXzXzXzXzXzXzXzXzXzXzXzXzXzXzXzXzXS b Q Y.T b -.;.0 x - < zXzXzXzXzXzXzXzXzXzXzXzXzXzXzXzXzXzXzXzXzXzXzXzXzXzX",
"zXzXzXzXzXzXzXzXzXzXzXzXzXzXzXzXzXzXzXzXzXzXzXzXu S F S D B.^ ~ J K ~ ^.^ S zXzXzXzXzXzXzXzXzXzXzXzXf.zXzXzXzXzXzXzXzXzXzXzXzXzX",
"zXzXzXzXzXzXzXzXzXzXzXzXzXzXzXzXzXzXzXzXzXzXzXzXP m n C P {.(.+X/.D D ^.^.I u.zXP.r.zXzXP.zXs.p.d.f.d.d.L.zXzXzXzXzXzXzXzXzXzXzX",
"zXzXzXzXzXzXzXzXzXzXzXzXzXzXzXzXzXzXzXzXzXzXzXo.l.L u L z.! E R.R.T S G |.B.e.g.g.e.0.g.r.q.0.s.p.g.P.L.h.d.zXf.zXzXzXzXzXzXzXzX",
"zXzXzXzXzXzXzXzXzXzXzXzXzXzXzXzXzXzXzXzXzXzXzX$.&.$.o.;.Z S S S S S S M B.^.q 8.q.6.6 8.8.6 6 8.6.9.r.h.i._ _ e e zXzXzXzXzXzXzX",
"zXzXzXzXzXzXzXzXzXzXzXzXzXzXzXzXzXzXzXzXzXzXzX@.@.@.' * - = z n M M z = / N.0 4 5 6.7 3 4 5 5 4 4 5 6.7.i._ _ w zXzXzXzXzXzXzXzX",
"zXzXzXzXzXzXzXzXzXzXzXzXzXzXzXzXzXzXzXzXzXzXzX@.@.@.1 O O % % & & & ! V.F.x.; 6.q.w.~ ~ q 6.w.Y 6.e.0.p.i._ ` w zXzXzXzXzXzXzXzX",
"zXzXzXzXzXzXzXzXzXzXzXzXzXzXzXzXzXzXzXzXzXzXzXzX$.%.O.A - O % % O u ~.}.}.}.G.q 7 C Q R ~ ^ E.Q 3 6 9.h e zXw zXzXzXzXzXzXzXzXzX",
"zXzXzXzXzXzXzXzXzXzXzXzXzXzXzXzXzXzXzXzXzXzXzXzX$.l.j.k.L ; & O 2 { a.c.~.[.}.{.w.- n E R.Y.R n $ zX7 4 zXzXzXzXzXzXzXzXzXzXzXzX",
"zXzXzXzXzXzXzXzXzXzXzXzXzXzXzXzXzXzXzXzXzXzXzXzX@.%.a.j.j.P - & 2 -.$.@.X.n.S.F.V.F - l j = = & zXzXzXzXzXzXzXzXzXzXzXzXzXzXzXzX",
"zXzXzXzXzXzXzXzXzXzXzXzXzXzXzXzXzXzXzXzXzXzXzXzX] @.,.M.j.i O % j j < { #.#.%.O.C z O O O & * zXzXzXzXzXzXzXzXzXzXzXzXzXzXzXzXzX",
"zXzXzXzXzXzXzXzXzXzXzXzXzXzXzXzXzXzXzXzXzXzXzXzX& d ;.I A.3.l l = O % % u a.f.g - % O : : p i.zXzXzXzXzXzXzXzXzXzXzXzXzXzXzXzXzX",
"zXzXzXzXzXzXzXzXzXzXzXzXzXzXzXzXzXzXzXzXzXzXzXzX< ; b S T ! F b O O O O ; q.0.g j = zXzXw ` i.zXzXzXzXzXzXzXzXzXzXzXzXzXzXzXzXzX",
"zXzXzXzXzXzXzXzXzXzXzXzXzXzXzXzXzXzXzXzXzXzXzXzXk.L A F F S z % O O & 2 $ zXzXz & zXzXzXzXw zXzXzXzXzXzXzXzXzXzXzXzXzXzXzXzXzXzX",
"zXzXzXzXzXzXzXzXzXzXzXzXzXzXzXzXzXzXzXzXzXzXzXj.j.j.j.v.N.I A < O = F :.l.zXzXzXzXzXzXzXzXzXzXzXzXzXzXzXzXzXzXzXzXzXzXzXzXzXzXzX",
"zXzXzXzXzXzXzXzXzXzXzXzXzXzXzXzXzXzXzXzXzXzXzXj.j.j.j.j.k.j.l.f O m J ^.[.oXzXzXzXzXzXzXzXzXzXzXzXzXzXzXzXzXzXzXzXzXzXzXzXzXzXzX",
"zXzXzXzXzXzXzXzXzXzXzXzXzXzXzXzXzXzXzXzXzXzXj.j.j.m.S.k.j.l.%.] O & B.oXXXXX[.zXzXzXzXzXzXzXzXzXzXzXzXzXzXzXzXzXzXzXzXzXzXzXzXzX",
"zXzXzXzXzXzXzXzXzXzXzXzXzXzXzXzXzXzXzXzXzXzXz.j.j.S.{.~.S.b.*.d < I |.XXXXXX}.c.zXzXzXzXzXzXzXzXzXzXzXzXzXzXzXzXzXzXzXzXzXzXzXzX",
"zXzXzXzXzXzXzXzXzXzXzXzXzXzXzXzXzXzXzXzXzXl.j.j.j.j.k.v.D.S.Z.:.z.D.oXXX[..XD.n.zXzXzXzXzXzXzXzXzXzXzXzXzXzXzXzXzXzXzXzXzXzXzXzX",
"zXzXzXzXzXzXzXzXzXzXzXzXzXzXzXzXzXzXzXzXzXz.j.l.j.j.l.X.X.%.&.%.....n.m.Z.m.b...zXzXzXzXzXzXzXzXzXzXzXzXzXzXzXzXzXzXzXzXzXzXzXzX",
"zXzXzXzXzXzXzXzXzXzXzXzXzXzXzXzXzXzXzXzXzXj.k.m.b.o.%.@.@.@.zXzX+.+.@.$.b.,.X.%.zXzXzXzXzXzXzXzXzXzXzXzXzXzXzXzXzXzXzXzXzXzXzXzX",
"zXzXzXzXzXzXzXzXzXzXzXzXzXzXzXzXzXzXzXzXA :.*.m.l.&.@.@.@.zXzXzXj 2 ] +.@.@.@.zXzXzXzXzXzXzXzXzXzXzXzXzXzXzXzXzXzXzXzXzXzXzXzXzX",
"zXzXzXzXzXzXzXzXzXzXzXzXzXzXzXzXzXzXS F D m ] +.%.%.@.zXzXzXS F n O O * a zXzXzXzXzXzXzXzXzXzXzXzXzXzXzXzXzXzXzXzXzXzXzXzXzXzXzX",
"zXzXzXzXzXzXzXzXzXzXzXzXzXzXzXzXS F T D S k % 1 @.@.zXzXzXS S S Q N = & & zXzXzXzXzXzXzXzXzXzXzXzXzXzXzXzXzXzXzXzXzXzXzXzXzXzXzX",
"zXzXzXzXzXzXzXzXzXzXzXzXzXzXzXn S T /.T l O & zXzXzXzXzXzXS S S E R.T S M zXzXzXzXzXzXzXzXzXzXzXzXzXzXzXzXzXzXzXzXzXzXzXzXzXzXzX",
"zXzXzXzXzXzXzXzXzXzXzXzXzXzXzXm S F T F n & O zXzXzXzXzXzXz S S S Y./.2.S S zXzXzXzXzXzXzXzXzXzXzXzXzXzXzXzXzXzXzXzXzXzXzXzXzXzX",
"zXzXzXzXzXzXzXzXzXzXzXzXzXzXzXM S S S S S = O zXzXzXzXzXzXzXzXn S S E Y.F S S zXzXzXzXzXzXzXzXzXzXzXzXzXzXzXzXzXzXzXzXzXzXzXzXzX",
"zXzXzXzXzXzXzXzXzXzXzXzXzXzXzXzXS S S S S S j zXzXzXzXzXzXzXzXzXl b n S S n j zXzXzXzXzXzXzXzXzXzXzXzXzXzXzXzXzXzXzXzXzXzXzXzXzX",
"zXzXzXzXzXzXzXzXzXzXzXzXzXzXzXzXn S S S S S z zXzXzXzXzXzXzXzXzXzX& - & & & zXzXzXzXzXzXzXzXzXzXzXzXzXzXzXzXzXzXzXzXzXzXzXzXzXzX",
"zXzXzXzXzXzXzXzXzXzXzXzXzXzXzXzX& & l n S n - zXzXzXzXzXzXzXzXzXzXzXzXzXO zXzXzXzXzXzXzXzXzXzXzXzXzXzXzXzXzXzXzXzXzXzXzXzXzXzXzX",
"zXzXzXzXzXzXzXzXzXzXzXzXzXzXzXzXzX& O & & & zXzXzXzXzXzXzXzXzXzXzXzXzXzXzXzXzXzXzXzXzXzXzXzXzXzXzXzXzXzXzXzXzXzXzXzXzXzXzXzXzXzX",
"zXzXzXzXzXzXzXzXzXzXzXzXzXzXzXzXzXzXO & O zXzXzXzXzXzXzXzXzXzXzXzXzXzXzXzXzXzXzXzXzXzXzXzXzXzXzXzXzXzXzXzXzXzXzXzXzXzXzXzXzXzXzX",
"zXzXzXzXzXzXzXzXzXzXzXzXzXzXzXzXzXzXzXzXzXzXzXzXzXzXzXzXzXzXzXzXzXzXzXzXzXzXzXzXzXzXzXzXzXzXzXzXzXzXzXzXzXzXzXzXzXzXzXzXzXzXzXzX",
"zXzXzXzXzXzXzXzXzXzXzXzXzXzXzXzXzXzXzXzXzXzXzXzXzXzXzXzXzXzXzXzXzXzXzXzXzXzXzXzXzXzXzXzXzXzXzXzXzXzXzXzXzXzXzXzXzXzXzXzXzXzXzXzX",
"zXzXzXzXzXzXzXzXzXzXzXzXzXzXzXzXzXzXzXzXzXzXzXzXzXzXzXzXzXzXzXzXzXzXzXzXzXzXzXzXzXzXzXzXzXzXzXzXzXzXzXzXzXzXzXzXzXzXzXzXzXzXzXzX",
"zXzXzXzXzXzXzXzXzXzXzXzXzXzXzXzXzXzXzXzXzXzXzXzXzXzXzXzXzXzXzXzXzXzXzXzXzXzXzXzXzXzXzXzXzXzXzXzXzXzXzXzXzXzXzXzXzXzXzXzXzXzXzXzX"
};
