/* XPM */
static char *result[] = {
/* columns rows colors chars-per-pixel */
"64 64 232 2 ",
"   c #231C00",
".  c #2C1F0A",
"X  c #241A15",
"o  c #2A1A16",
"O  c #361F1B",
"+  c #1F3513",
"@  c #2A2408",
"#  c #30250B",
"$  c #29370D",
"%  c #2E211C",
"&  c #2C2016",
"*  c #342817",
"=  c #213614",
"-  c #243916",
";  c #2B3D19",
":  c #29371A",
">  c #313D18",
",  c #310521",
"<  c #371D22",
"1  c #3C2123",
"2  c #3A2D26",
"3  c #353125",
"4  c #030A26",
"5  c #571708",
"6  c #690E09",
"7  c #730F0F",
"8  c #7A1318",
"9  c #6A110D",
"0  c #47301D",
"q  c #6F2319",
"w  c #590A3C",
"e  c #4D0733",
"r  c #473A28",
"t  c #563928",
"y  c #4B263B",
"u  c #483631",
"i  c #50272E",
"p  c #6E3430",
"a  c #660B3F",
"s  c #254C15",
"d  c #2C411A",
"f  c #284314",
"g  c #33441D",
"h  c #38481C",
"j  c #265419",
"k  c #29541B",
"l  c #265418",
"z  c #31561F",
"x  c #3C4C22",
"c  c #374925",
"v  c #2D5B21",
"b  c #3A5524",
"n  c #37632C",
"m  c #3B6932",
"M  c #4C451D",
"N  c #434C26",
"B  c #54492B",
"V  c #445425",
"C  c #49582A",
"Z  c #58463B",
"A  c #595B30",
"S  c #674937",
"D  c #7C433E",
"F  c #754839",
"G  c #75533A",
"H  c #685632",
"J  c #4E612F",
"K  c #4B6631",
"L  c #566A35",
"P  c #5A743B",
"I  c #57662D",
"U  c #64663A",
"Y  c #617A3F",
"T  c #766D3A",
"R  c #35315A",
"E  c #363368",
"W  c #151A53",
"Q  c #640A43",
"!  c #750B4D",
"~  c #7A0A52",
"^  c #4B2442",
"/  c #572A47",
"(  c #493442",
")  c #553748",
"_  c #563053",
"`  c #763C49",
"'  c #642D5D",
"]  c #692E5C",
"[  c #6C345A",
"{  c #75365E",
"}  c #7B3B5A",
"|  c #7C3C56",
" . c #6A3A4F",
".. c #6D2E6C",
"X. c #672E63",
"o. c #702F69",
"O. c #6C3165",
"+. c #743464",
"@. c #723266",
"#. c #5E4D40",
"$. c #7F4743",
"%. c #695949",
"&. c #6D4F47",
"*. c #55794F",
"=. c #786248",
"-. c #70724A",
";. c #7E4063",
":. c #776672",
">. c #88141D",
",. c #880F1B",
"<. c #891324",
"1. c #921523",
"2. c #9A1A28",
"3. c #B71E3A",
"4. c #AA1E33",
"5. c #8D3730",
"6. c #B6293B",
"7. c #B52F33",
"8. c #81443F",
"9. c #84723D",
"0. c #A24834",
"q. c #850D55",
"w. c #8E1651",
"e. c #B51A52",
"r. c #813F51",
"t. c #8E2E51",
"y. c #BC2B53",
"u. c #BC2863",
"i. c #990D65",
"p. c #C42641",
"a. c #CD394E",
"s. c #864546",
"d. c #894745",
"f. c #85434B",
"g. c #8B4B48",
"h. c #895446",
"j. c #92524C",
"k. c #915147",
"l. c #844452",
"z. c #9C664A",
"x. c #877743",
"c. c #987746",
"v. c #9B6456",
"b. c #88715B",
"n. c #A1654E",
"m. c #A46A48",
"M. c #A26651",
"N. c #AE7554",
"B. c #B07657",
"V. c #B37C55",
"C. c #B47C58",
"Z. c #A6744E",
"A. c #947665",
"S. c #A17460",
"D. c #E35648",
"F. c #D84A53",
"G. c #678547",
"H. c #769653",
"J. c #728A53",
"K. c #6A976A",
"L. c #74916A",
"P. c #669161",
"I. c #83833E",
"U. c #8B8B51",
"Y. c #AF8453",
"T. c #B68255",
"R. c #BC875A",
"E. c #A88B50",
"W. c #82A65E",
"Q. c #A9A059",
"!. c #8F8A6A",
"~. c #A88673",
"^. c #AF9675",
"/. c #89A865",
"(. c #A9A578",
"). c #AEB46C",
"_. c #C28C59",
"`. c #C89B5B",
"'. c #CBA25B",
"]. c #D4A35F",
"[. c #D5A561",
"{. c #DCAE62",
"}. c #D6A860",
"|. c #DBB167",
" X c #CDAB6B",
".X c #A2D17C",
"XX c #99C473",
"oX c #76718B",
"OX c #997F87",
"+X c #7FAE85",
"@X c #B99A85",
"#X c #A18682",
"$X c #82A783",
"%X c #8BB993",
"&X c #BFA18A",
"*X c #ADAE89",
"=X c #9491AA",
"-X c #A29AA7",
";X c #B8ADA7",
":X c #C7A48D",
">X c #C9A68E",
",X c #CBA88F",
"<X c #CEAC94",
"1X c #C7A997",
"2X c #C6B69A",
"3X c #D5B69B",
"4X c #D9BBA1",
"5X c #C6BBA9",
"6X c #97C0A2",
"7X c #ADDCBD",
"8X c #A8D5B4",
"9X c #B0DEBF",
"0X c #B4D6B2",
"qX c #A7CDAC",
"wX c #AEC099",
"eX c #C7C891",
"rX c #DEC09F",
"tX c #D7C0A8",
"yX c #CECCAD",
"uX c #E2CBBB",
"iX c #E4CAA6",
"pX c #BEB7C0",
"aX c #AEDEC0",
"sX c #B0DFC0",
"dX c #B1E0C2",
"fX c #D8C8CF",
"gX c #E8D5C5",
"hX c #E8DED6",
"jX c #ECE2DC",
"kX c #FFF8EE",
"lX c #FAEDE0",
"zX c None",
/* pixels */
"zXzXzXzXzXzXzXzXzXzXzXzXzXzXzXzXzXzXzXzXzXzXzXzXzXzXzXzXzXzXzXzXzXzXzXzXzXzXzXzXzXzXzXzXzXzXzXzXzXzXzXzXzXzXzXzXzXzXzXzXzXzXzXzX",
"zXzXzXzXzXzXzXzXzXzXzXzXzXzXzXzXzXzXzXzXzXzXzXzXzXzXzXzXzXzXzXzXzXzXzXzXzXzXzXzXzXzXzXzXzXzXzXzXzXzXzXzXzXzXzXzXzXzXzXzXzXzXzXzX",
"zXzXzXzXzXzXzXzXzXzXzXzXzXzXzXzXzXzXzXzXzXzXzXzXzXzXzXzXzXzXzXzXzXzXzXzXzXzXzXzXzXzXzXzXzXzXzXzXzXzXzXzXzXzXzXzXzXzXzXzXzXzXzXzX",
"zXzXzXzXzXzXzXzXzXzXzXzXzXzXzXzXzXzXzXzXzXzXzXzXzXzXzXzXzXzXzXzXzXzXzXzXzXzXzXzXzXzXzXzXzXzXzXzXzXzXzXzXzXzXzXzXzXzXzXzXzXzXzXzX",
"zXzXzXzXzXzXzXzXzXzXzXzXzXzXzXzXzXzXzXzXzXzXzXzXzXzXzXzXzXzXzXI T.[.n.zXzXzXzXzXzXzXzXzXzXzXzXzXzXzXzXzXzXzXzXzXzXzXzXzXzXzXzXzX",
"zXzXzXzXzXzXzXzXzXzXzXzXzXzXzXzXzXzXzXzXzXzXzXzXzXzXzXl K J.E.'.].{.[.C.z.c.zXzXzXzXzXzXzXzXzXzXzXzXzXzXzXzXzXzXzXzXzXzXzXzXzXzX",
"zXzXzXzXzXzXzXzXzXzXzXzXzXzXzXzXzXzXzXzXzXzXzXzXzXk m H.).{.{.{.'.Y.x.J.!.L.V h u zXzXzXzXzXzXzXzXzXzXzXzXzXzXzXzXzXzXzXzXzXzXzX",
"zXzXzXzXzXzXzXzXzXzXzXzXzXzXzXzXzXzXzXzXzXzXzXk j m *X|.{.{.].c.U.L.6X8XdXdX$Xk k c zXzXzXzXzXzXzXzXzXzXzXzXzXzXzXzXzXzXzXzXzXzX",
"zXzXzXzXzXzXzXzXzXzXzXzXzXzXzXzXzXzXzXzXzXzXk j v /.|.{.{.`.T $XaXaXaXaXsXsX8X*.v j s zXzXzXzXzXzXzXzXzXzXzXzXzXzXzXzXzXzXzXzXzX",
"zXzXzXzXzXzXzXzXzXzXzXzXzXzXzXzXzXzXzXzXzXk k k G. X{.{.{.c.+XsXaXaXaXaXsXsXsXL.v l j j zXzXzXzXzXzXzXzXzXzXzXzXzXzXzXzXzXzXzXzX",
"zXzXzXzXzXzXzXzXzXzXzXzXzXzXzXzXzXzXzXzXzXf k n *X[.{.{.`.J.8XsXaX7X0XeXeXeXeX).U.I.J.T G zXd.zXzXzXzXzXzXzXzXzXzXzXzXzXzXzXzXzX",
"zXzXzXzXzXzXzXzXzXzXzXzXzXzXzXzXzXzXzXzX$ f j z h.z.T.R.=.%XqX8X;XS.R.C.B.B.C.B.B.C.B.j.f.f.l.} zXzXzXzXzXzXzXzXzXzXzXzXzXzXzXzX",
"zXzXzXzXzXzXzXzXzXzXzXzXzXzXzXzXzXzXzX@ c K.v b $.s.s.s.h v K P.%.[ ] ] X.] X.o.+.@.....X.O.o.zXzXzXzXzXzXzXzXzXzXzXzXzXzXzXzXzX",
"zXzXzXzXzXzXzXzXzXzXzXzXzXzXzXzXzXzXzXt M P.m B s.s.d.h.z l l b @Xu < 0 i i 1 y ^ y ^ 1 & * zXzXzXzXzXzXzXzXzXzXzXzXzXzXzXzXzXzX",
"zXzXzXzXzXzXzXzXzXzXzXzXzXzXzXzXzXzX[ g.m.P v S g.d.d.S k l l !.iX%.O o X i o X X X o o - zXzXzXzXzXzXzXzXzXzXzXzXzXzXzXzXzXzXzX",
"zXzXzXzXzXzXzXzXzXzXzXzXzXzXzXzXzXzX/ g.8.g z d.8.g.8.t l l l U ~.b.& Z u o X & 1 % 2 % : k zXzXzXzXzXzXzXzXzXzXzXzXzXzXzXzXzXzX",
"zXzXzXzXzXzXzXzXzXzXzXzXzXzXzXzXzXzXy +.8.> z D d.d.d.B l k s H b.u o u ) X X %.~.u % X f j zXzXzXzXzXzXzXzXzXzXzXzXzXzXzXzXzXzX",
"zXzXzXzXzXzXzXzXzXzXzXzXzXzXzXzXzXzXy ..` > z 8.d.d.s.0 j j z !.,X&X~.b.#.X % A.=.#.~.&.k k zXzXzXzXzXzXzXzXzXzXzXzXzXzXzXzXzXzX",
"zXzXzXzXzXzXzXzXzXzXzXzXzXzXzXzXzXzX' ..' @ # D d.d.D # l j J 5XuXuX3X<X&X#.% b.S.1X<X(.v zXzXzXzXzXzXzXzXzXzXzXzXzXzXzXzXzXzXzX",
"zXzXzXzXzXzXzXzXzXzXzXzXzXzXzXzXzXzXzX/ 1   . $.f.d.D # l j b hXkXkXlXuX1X@X#.=.5X5X4XJ.s zXzXzXzXzXzXzXzXzXzXzXzXzXzXzXzXzXzXzX",
"zXzXzXzXzXzXzXzXzXzXzXzXzXzXzXzXzXzXzX#     # X...+.$.# - l h hXjX=XpXkXuX,X:X1X-X;X1XK s zXzXzXzXzXzXzXzXzXzXzXzXzXzXzXzXzXzXzX",
"zXzXzXzXzXzXzXzXzXzXzXzXzXzXzXzXzXzXzXzX    . / ....X.. @ @ -.jXoXW R hXuX3X:X#XE ;X(.v zXzXzXzXzXzXzXzXzXzXzXzXzXzXzXzXzXzXzXzX",
"zXzXzXzXzXzXzXzXzXzXzXzXzXzXzXzXzXzXzXzXzX    y ....' .     A.gXE 4 R fXgXiXrX:.R 2X-.s zXzXzXzXzXzXzXzXzXzXzXzXzXzXzXzXzXzXzXzX",
"zXzXzXzXzXzXzXzXzXzXzXzXzXzXzXzXzXzXzXzXzXzX  % X.....i     =.4X#XoX=XfX3XrXtX1X@X(.k + zXzXzXzXzXzXzXzXzXzXzXzXzXzXzXzXzXzXzXzX",
"zXzXzXzXzXzXzXzXzXzXzXzXzXzXzXzXzXzXzXzXzXzXzX. ' ....y     =.>X>X4X4X4X>X:X>X>X^.v j zXzXzXzXzXzXzXzXzXzXzXzXzXzXzXzXzXzXzXzXzX",
"zXzXzXzXzXzXzXzXzXzXzXzXzXzXzXzXzXzXzXzXzXzXzXzXy ..o.] .   =.>X:X:X:X:X>X>X>X>X*XK.zXzXzXzXzXzXzXzXzXzXzXzXzXzXzXzXzXzXzXzXzXzX",
"zXzXzXzXzXzXzXzXzXzXzXzXzXzXzXzXzXzXzXzXzXzXzXzXzX..o...1   B @X:X:X:X:X:X:X:X5X0XzXzXzXzXzXzXzXzXzXzXzXzXzXzXzXzXzXzXzXzXzXzXzX",
"zXzXzXzXzXzXzXzXzXzXzXzXzXzXzXzXzXzXzXzXzXzXzXzXzXzXX.O.u h > U @X&X>X:X:X>X2X8X%XzXzXzXzXzXzXzXzXzXzXzXzXzXzXzXzXzXzXzXzXzXzXzX",
"zXzXzXzXzXzXzXzXzXzXzXzXzXzXzXzXzXzXzXzXzXzXzXzXzXzXC C L J.K c N !.,X<X3XyXqXL.zXzXzXzXzXzXzXzXzXzXzXzXzXzXzXzXzXzXzXzXzXzXzXzX",
"zXzXzXzXzXzXzXzXzXzXzXzXzXzXzXzXzXzXzXzXzXzXzXzXN x V V C x.9.L J h U U.L.$X*.zXzXzXzXzXzXzXzXzXzXzXi.~ zXzXzXzXzXzXzXzXzXzXzXzX",
"zXzXzXzXzXzXzXzXzXzXzXzXzXzXzXzXzXzXzXzXzXzXzXzXp > N N G `.Q.).XXJ M $ M H 0.zXD.D.D.D.D.zXp.e.e.u.u.a.F.zXzXzXzXzXzXzXzXzXzXzX",
"zXzXzXzXzXzXzXzXzXzXzXzXzXzXzXzXzXzXzXzXzXzXzX} l.S r S s.A J H.J.J C M I.9.y.p.p.7.6.p.p.2.4.3.y.p.F.a.a.u.zXq.zXzXzXzXzXzXzXzX",
"zXzXzXzXzXzXzXzXzXzXzXzXzXzXzXzXzXzXzXzXzXzXzX..o...o.&.V V V V V V V x 9.E.p >.2.>.6 >.1.8 8 1.1.1.7.a.q.~ q.e , zXzXzXzXzXzXzX",
"zXzXzXzXzXzXzXzXzXzXzXzXzXzXzXzXzXzXzXzXzXzXzX......_ : - d g x V V g ; H z.0 6 7 1.9 5 6 7 7 6 6 8 1.>.! ! ! w zXzXzXzXzXzXzXzX",
"zXzXzXzXzXzXzXzXzXzXzXzXzXzXzXzXzXzXzXzXzXzXzX......( + = = + = $ - A c.Z.h.0 ,.2.5.U U q ,.p G >.7.a.4.Q Q Q , zXzXzXzXzXzXzXzX",
"zXzXzXzXzXzXzXzXzXzXzXzXzXzXzXzXzXzXzXzXzXzXzX....{ $.t : = + - + r Z.'.{.'.m.q 5 M P K U 9.U.Y 5 >.2.<.8 zXzXzXzXzXzXzXzXzXzXzX",
"zXzXzXzXzXzXzXzXzXzXzXzXzXzXzXzXzXzXzXzXzXzXzX..+.s.d.f.$.3 = + : ' } j.B._.{._.p $ N P H.G.K c * zX6 zXzXzXzXzXzXzXzXzXzXzXzXzX",
"zXzXzXzXzXzXzXzXzXzXzXzXzXzXzXzXzXzXzXzXzXzXzX..+.| { o.l.t + + : ( X.o.} f.M.V.E.J $ g d ; ; - zXzXzXzXzXzXzXzXzXzXzXzXzXzXzXzX",
"zXzXzXzXzXzXzXzXzXzXzXzXzXzXzXzXzXzXzXzXzXzXzXzXO.+.| {  .: - - + = 3 ( o...@. .N c = + + - : zXzXzXzXzXzXzXzXzXzXzXzXzXzXzXzXzX",
"zXzXzXzXzXzXzXzXzXzXzXzXzXzXzXzXzXzXzXzXzXzXzXc ) S S N c + d b + + = : i t.w.p ; - + = 1 y w.zXzXzXzXzXzXzXzXzXzXzXzXzXzXzXzXzX",
"zXzXzXzXzXzXzXzXzXzXzXzXzXzXzXzXzXzXzXzXzXzXzX- ; V V V h h - = + + = : 8 6.4.t > ; zXzXw Q q.zXzXzXzXzXzXzXzXzXzXzXzXzXzXzXzXzX",
"zXzXzXzXzXzXzXzXzXzXzXzXzXzXzXzXzXzXzXzXzXzXzX+ > S T.`.'.'.T x g g B F 8 zXzX: - zXzXzXzXw zXzXzXzXzXzXzXzXzXzXzXzXzXzXzXzXzXzX",
"zXzXzXzXzXzXzXzXzXzXzXzXzXzXzXzXzXzXzXzXzXzXzXr D d.T.{.{.{.T.S V x x.V.M.zXzXzXzXzXzXzXzXzXzXzXzXzXzXzXzXzXzXzXzXzXzXzXzXzXzXzX",
"zXzXzXzXzXzXzXzXzXzXzXzXzXzXzXzXzXzXzXzXzXzXzXzXd.k._.}.{.{.[.z.; d E.{.}._.j.zXzXzXzXzXzXzXzXzXzXzXzXzXzXzXzXzXzXzXzXzXzXzXzXzX",
"zXzXzXzXzXzXzXzXzXzXzXzXzXzXzXzXzXzXzXzXzXzXzXl.8.k.n.`.{.{.{.`.S B `.`.].{.M.zXzXzXzXzXzXzXzXzXzXzXzXzXzXzXzXzXzXzXzXzXzXzXzXzX",
"zXzXzXzXzXzXzXzXzXzXzXzXzXzXzXzXzXzXzXzXzXzXzXzX;.d.k.C.{.{.{.C.s.f.T.].R.B.M.l.zXzXzXzXzXzXzXzXzXzXzXzXzXzXzXzXzXzXzXzXzXzXzXzX",
"zXzXzXzXzXzXzXzXzXzXzXzXzXzXzXzXzXzXzXzXzXzXzXzX@.f.d.j.B.B.B.k.f.| n.].[.v.C.R.j.zXzXzXzXzXzXzXzXzXzXzXzXzXzXzXzXzXzXzXzXzXzXzX",
"zXzXzXzXzXzXzXzXzXzXzXzXzXzXzXzXzXzXzXzXzXzXzXzX..{ f.g.M.j.f.+.{ r.d.n.C.`.v.j.f.zXzXzXzXzXzXzXzXzXzXzXzXzXzXzXzXzXzXzXzXzXzXzX",
"zXzXzXzXzXzXzXzXzXzXzXzXzXzXzXzXzXzXzXzXzXzXzXzXzX..+.| v.z.M.l.+.} f.d.d.B.E.%.#.zXzXzXzXH./.zXzXzXzXzXzXzXzXzXzXzXzXzXzXzXzXzX",
"zXzXzXzXzXzXzXzXzXzXzXzXzXzXzXzXzXzXzXzXzXzXzXzXzXzXX.....+.+.+.......+.r.G I -.G.zXzXV G..X.XG.x zXzXzXzXzXzXzXzXzXzXzXzXzXzXzX",
"zXzXzXzXzXzXzXzXzXzXzXzXzXzXzXzXzXzXzXzXzXzXzXzXzX- : ( X.X...zXzXzX..../ g x P J.C V V K H.L d - zXzXzXzXzXzXzXzXzXzXzXzXzXzXzX",
"zXzXzXzXzXzXzXzXzXzXzXzXzXzXzXzXzXzXzXzXzXzXzXzXzXd d + : : zXzXzXzXzXzXzX+ g V V V V V x ; + + - zXzXzXzXzXzXzXzXzXzXzXzXzXzXzX",
"zXzXzXzXzXzXzXzXzXzXzXzXzXzXzXzXzXzXzXzXzXzXzXzXV J b d - zXzXzXzXzXzXzXzXzX- V V V V c - + + = zXzXzXzXzXzXzXzXzXzXzXzXzXzXzXzX",
"zXzXzXzXzXzXzXzXzXzXzXzXzXzXzXzXzXzXzXzXzXzXzXh K /.J.G.V V zXzXzXzXzXzXzXzX- d V V d + = + = zXzXzXzXzXzXzXzXzXzXzXzXzXzXzXzXzX",
"zXzXzXzXzXzXzXzXzXzXzXzXzXzXzXzXzXzXzXzXzXzXzXd V I P P V V zXzXzXzXzXzXzXzXzX= ; d + + - zXzXzXzXzXzXzXzXzXzXzXzXzXzXzXzXzXzXzX",
"zXzXzXzXzXzXzXzXzXzXzXzXzXzXzXzXzXzXzXzXzXzXzX= d C H./.G.C V zXzXzXzXzXzXzXzXzX+ + + + zXzXzXzXzXzXzXzXzXzXzXzXzXzXzXzXzXzXzXzX",
"zXzXzXzXzXzXzXzXzXzXzXzXzXzXzXzXzXzXzXzXzXzXzX= + d C J J x - zXzXzXzXzXzXzXzXzXzX- zXzXzXzXzXzXzXzXzXzXzXzXzXzXzXzXzXzXzXzXzXzX",
"zXzXzXzXzXzXzXzXzXzXzXzXzXzXzXzXzXzXzXzXzXzXzXzX+ + - - - - zXzXzXzXzXzXzXzXzXzXzXzXzXzXzXzXzXzXzXzXzXzXzXzXzXzXzXzXzXzXzXzXzXzX",
"zXzXzXzXzXzXzXzXzXzXzXzXzXzXzXzXzXzXzXzXzXzXzXzXzXzXzX+ + zXzXzXzXzXzXzXzXzXzXzXzXzXzXzXzXzXzXzXzXzXzXzXzXzXzXzXzXzXzXzXzXzXzXzX",
"zXzXzXzXzXzXzXzXzXzXzXzXzXzXzXzXzXzXzXzXzXzXzXzXzXzXzXzXzXzXzXzXzXzXzXzXzXzXzXzXzXzXzXzXzXzXzXzXzXzXzXzXzXzXzXzXzXzXzXzXzXzXzXzX",
"zXzXzXzXzXzXzXzXzXzXzXzXzXzXzXzXzXzXzXzXzXzXzXzXzXzXzXzXzXzXzXzXzXzXzXzXzXzXzXzXzXzXzXzXzXzXzXzXzXzXzXzXzXzXzXzXzXzXzXzXzXzXzXzX",
"zXzXzXzXzXzXzXzXzXzXzXzXzXzXzXzXzXzXzXzXzXzXzXzXzXzXzXzXzXzXzXzXzXzXzXzXzXzXzXzXzXzXzXzXzXzXzXzXzXzXzXzXzXzXzXzXzXzXzXzXzXzXzXzX",
"zXzXzXzXzXzXzXzXzXzXzXzXzXzXzXzXzXzXzXzXzXzXzXzXzXzXzXzXzXzXzXzXzXzXzXzXzXzXzXzXzXzXzXzXzXzXzXzXzXzXzXzXzXzXzXzXzXzXzXzXzXzXzXzX",
"zXzXzXzXzXzXzXzXzXzXzXzXzXzXzXzXzXzXzXzXzXzXzXzXzXzXzXzXzXzXzXzXzXzXzXzXzXzXzXzXzXzXzXzXzXzXzXzXzXzXzXzXzXzXzXzXzXzXzXzXzXzXzXzX"
};
