/* XPM */
static char *result[] = {
/* columns rows colors chars-per-pixel */
"64 64 52 1 ",
"  c #BA2D00",
". c #ED3F00",
"X c #4E3C85",
"o c #D43600",
"O c #190A4A",
"+ c #2A1A7D",
"@ c #413173",
"# c #110632",
"$ c #F54200",
"% c #200C5D",
"& c #F04000",
"* c #E43C00",
"= c #AD2A03",
"- c #E03A00",
"; c #F44100",
": c #B22C02",
"> c #CC3401",
", c #B72C00",
"< c #C73200",
"1 c #DA3800",
"2 c #E83D00",
"3 c #C04727",
"4 c #8D2109",
"5 c #9E2604",
"6 c #962203",
"7 c #23092C",
"8 c #831B03",
"9 c #D9783F",
"0 c #C02F00",
"q c #FEE961",
"w c #009BDD",
"e c #A72700",
"r c #681A1B",
"t c #54141B",
"y c #3B0F28",
"u c #761807",
"i c #491324",
"p c #23EAF5",
"a c #8D75DC",
"s c #180630",
"d c #310C29",
"f c #812116",
"g c #45164C",
"h c #FEB030",
"j c #922D29",
"k c #046BB7",
"l c #98534E",
"z c #742137",
"x c #DB892A",
"c c #FAA033",
"v c #3E1E72",
"b c #4D8097",
/* pixels */
"#############OO#######OO######################OO######OO########",
"###%########%%O#@####%%O###########%#########%%O#####%%O########",
"#@######X##++%#@a@##%+%###a######@######X###%+%#####%+%###X#####",
"##########%++###@##O%%######9##X###########O%%#####O%%######9##X",
"#########p%%#######OO######9q9###########p#OO######OO######9q9##",
"####+####%O#################9%######+####%##################9%##",
"############X##############%+%#############################%+%##",
"##q################%#######%%#####q########%#######%#######%%###",
"######%%######+######+################%%#####@#######@##########",
"######%+%##############X##############%+%######X#######X########",
"####k##%%####p###########d6          ei%%####################OO#",
"X###w########%####+###dttr5          =utty+#######+#########%%O#",
"###wpw##@#############t:::,           :::u#################O%%##",
"####w##@a@########7txr4                  :44cd######q######OO###",
"####k###@#%####%%sy4                     o$$1r7#################",
"##########%###%+%t4=                     o$$.0f7################",
"###OO##########7y8         ,===,         o$$$$<rd#########OO####",
"##%%O########OOi5=         =646=         o$$$$21f#a##3###%%O#@##",
"#%+%#########%gf,          e488e         o$$$$$$ ry#393#++%#@a@#",
"O%%########X#g5            e4uu5         o$$$$$$$.z##3#%++###@##",
"OO###########y5            :e486e:       o$2-&$$$.z%##O%%#######",
"############7t5              e446:       o$-o2&&&&jgs#OO########",
"###########sr5:              :===,       o$&21oo*;ojy####X######",
"###%#######78                          0<-$$&-o>-$$>i###########",
"#@######+##78                          <2&$$;&*>-$$>i#####X#####",
"##########rr5           =565,          >.$$$$$.--*.-5l######9##X",
"#########p             ,68u8:          >.$$$$$$$*>2$$;#####9q9##",
"####+####%            =68uu6:        0o*&$$$$$$$.*&$$$######9%##",
"##########            e68845,        0*$$$$$$$$$$$$$$$%####%+%##",
"##q#######            ,==e=:         0*$$$$$$$$$$$$$$$%####%%###",
"######%%##                          <o2&222&$$$$$$$$$$%%########",
"######%+%#                          o&;.o>>*$$$$$$$$$$%%########",
"#######%%#                          1;2o 0<*$$$$$$$$$$#######OO#",
"X###w#####       ,,,,              01&10=,>*$$$$$$$$$$######%%O#",
"###wpw##@#       e665,            <-.;.10>2&$$$$$$$$$$@####O%%##",
"####w##@a@       5886:           <1;$$$.1*$$$$$$$$$$$$###O#OO###",
"########@#       58u8:          <-&;$$$;&&$$$$$$$$$$$$###O######",
"##########u8e    e646:         <1.$$$$$$$$$$$$$$.*&*:5##########",
"##########s78     ,,,         0-;$$$$$$$$$$$$$$$*>*>is######X###",
"######%%###7j              <111.$$$$$$$$$$$$$$2>o*.>i###########",
"######%%###7u=,         000o&$$$$$$$$$$$$$$$$$-,>;*:y#OO#######@",
"###########sdre         o**2;$$$$$$$$$$$$$$$$$&-2&6i7%%O###p####",
"###########OOy5     0<>>*$$$$$;..;$$$$$$$$$$$$$$$.r#%+%#######%%",
"%###3###@##O%g5     <2..;$$$$$;1o.$$$$$$$$$$$$$$$.rO%%########%+",
"%##3q3#@a@##%gr4 <oo-&$$$$$$$$;21o1-.$$$$$$$$$$$>4iOO##########%",
"####3###@####OOt:1$$$$$$;;$$$$$$*,:<-$$$$$$$$$;&4##########X####",
"########OO#####dt:$$$$$;1>2$$$$$2<0<-$$$$$$$$$>fi###############",
"#####OO%%O#######fo2$$$;>0*$$$$$.1oo*$$$$$$$&167###%############",
"#X##O%%%%##%%####dh<$$$$2*&$$$$$;...&$$$$$$$-jys#####@######+###",
"####O%+%O##%+%####7f==>$$$$$$$$$$$$$$$$$$1==6y#X#######X########",
"####%%%%O###9%#####7v7f$$$$$$$$$$$$$$$$$$5777s##################",
"###O%%OO###9q9########i44l1$$$$$$$$$$.=j4t+#######+#############",
"###OO#w#####9##X#########y0$$$$$$$$$$-b#########################",
"#####wpw##a######@######X##%%##+####kwpwk###q#######q######%%##%",
"######w#+##########%#######%+%########w#+##################%+%##",
"############################%%O#############################%%O#",
"#############OO#######%+%####OO##############################OO#",
"########X##X#O%%######%%###h############%####OOO#####OOO###3####",
"######%%######%%O#########hqh#########%%#####%+%#####%+%##3q3###",
"###X#O%%#######OO##X#######h#######X#O%%###X#%%%###X#%%%###3####",
"#####OOO#####################+#######OOO#####OOO3####OOO3####+##",
"#######################+#######################3q3#####3q3######",
"#############################################%O#3####%O#3#######",
"##############%%####@###########################################"
};
