/* XPM */
static char *result[] = {
/* columns rows colors chars-per-pixel */
"64 64 84 1 ",
"  c #060011",
". c #060111",
"X c gray64",
"o c #090113",
"O c white",
"+ c #090311",
"@ c #1E1E1E",
"# c #110632",
"$ c #AEAEAE",
"% c #101010",
"& c #200C5D",
"* c #0B0115",
"= c #323232",
"- c #13041E",
"; c #0F031A",
": c #0E0215",
"> c #190A4A",
", c #060113",
"< c #0B0610",
"1 c #180523",
"2 c #868686",
"3 c #160316",
"4 c #0D0B10",
"5 c #1F0625",
"6 c #341336",
"7 c #200929",
"8 c #2A1034",
"9 c #413173",
"0 c #421B45",
"q c #1B0318",
"w c #838383",
"e c #2A1A7D",
"r c #AFAFAF",
"t c #230C2F",
"y c #4E3C85",
"u c #3A173E",
"i c #676767",
"p c #2D081D",
"a c #5E2B62",
"s c #4E214E",
"d c #C04727",
"f c #2C0C2D",
"g c #0F0D2A",
"h c #0D1734",
"j c #612854",
"k c #09213D",
"l c gray31",
"z c #55275B",
"x c #6D2D5E",
"c c #7C3364",
"v c #FEE961",
"b c #230719",
"n c #5F6CB5",
"m c #2A282C",
"M c #414041",
"N c gray57",
"B c #D2CD9E",
"V c #E4DD96",
"C c gainsboro",
"Z c #3246B9",
"A c #04689D",
"S c #0E2C52",
"D c #585759",
"F c #8D75DC",
"G c #7E7E7E",
"H c #651123",
"J c #C44D51",
"K c #C33E42",
"L c #B59191",
"P c #A54680",
"I c #D9783F",
"U c #5B0E22",
"Y c gray78",
"T c #7F87B3",
"R c gray95",
"E c #B29C9C",
"W c #CD0E0E",
"Q c #FFF489",
"! c #6E1225",
"~ c #09192E",
"^ c #024A78",
"/ c #B78080",
"( c #125868",
") c gray73",
/* pixels */
"#############>>#######>>######################>>######>>########",
"###&########&&>#9####&&>###########&#########&&>#####&&>########",
"#9######y##ee&#9F9##&e&###F######9######y###&e&#####&e&###y#####",
"###                    8                                     ##y",
"###         z*         ,                                     I##",
"###   -0                     -o                              &##",
"###                      ...-Sho        :                    &##",
"##v            -      1  o:*hAS-        p         .-         ###",
"###           7j1     6     *h-.             oo   ,8         ###",
"###           fc7         17 *.          t   *o        t-    ###",
"###     o*    .5          -1             7             7;    >>#",
"y##    ,pp*                                                  &>#",
"###z*  .33.                                                  &##",
"###*               x6  .- -1    +5c   ;o            o; 1;    ###",
"###           u          ;jx-s-  ++        70         1cs*a  ###",
"###           +       -   --        oo             -   1;    ###",
"###                   s             q3            *0         ###",
"##&                                      *                   9##",
"#&e                      :q              ;          *;       F9#",
">&&             o:       :q....u....   ;     t7     *;  +k,  9##",
">>#  7          .o 7-     +%%%%%%%%%.  o     -;          g.  ###",
"### ta7            *o     +%%%%%%%%%.           6,      ..   ###",
"### ,8,              .<<<<Drrrrrrrrrm<<<<       o          *a###",
"###            .     .%%%%GOOOOOOOOOM%%%4             pb    o###",
"#9#     oo    ;S*    .%%liXOOOOOOOOOwiM%4                    ###",
"###     3q   ,tA1    .%%YOOOOOOOOOOOOON%4       o            ##y",
"###      f5   .1     +%%YOOOOOOOOOOOOON%%       : 5        : I##",
"###   .: 6f        <4MCCROOOOOOOOOOOOORC)4%.    +7c5      :0:&##",
"###   .*           <%lOOOOOOOOOOOOOOOOOOC%%+     5x1      :6:&##",
"##v         +<<4<<<4%m222222222222222222i%%4;<<<<<3   -;   * ###",
"###     *:  4%%%%%%%%%%%%%%%%%%%%%%%%%%%%%%%%%%%%%+3  o,     ###",
"###8,  ..+..m=====================================@+....     ###",
"###P6  <%%%%G$$$$$$$$$$$$$$$$$$$$$$$$$$$$$$$$$$$$$D%%%%.   ,8>>#",
"y##8.  <%%%%G$$$$$$$$$$$$$$$$$$$$$$$$$$$$$$$$$$$$$D%%%%.     &>#",
"###  <4lwwwwX$$$$$$$$$$$$$$$$$$$$LKKE$TZn$$BVB$$$$Nwwwwm4+***&##",
"###  4%i$$$$$$$$$$$$$$$$$$$$$$$$$/WWL$nZZ$rVQV$$$rr$$$r=%<hhq###",
"###++Mlw$$$$$$$$$$$$$$$$$$$$$$$$$LJJE$Tnn$$BVB$$$$$$$$$il=(kq###",
"##g%%N$$$$$$$$$$$$$$$$$$$$$$$$$$$$$$$$$$r$$$$$$$$$$$$$$rri%%:###",
"##g%%2XXXXXXXXXXXXXXXXXXXXXXXXXXXXXXXXXXXXXXXXXXXXXXXXXXXi%%.###",
"##g%%@@@@@@@@@@@@@@@@@@@@@@@@@@@@@@@@@@@@@@@@@@@@@@@@@@@@@%4.###",
"##g%%%%%%%%%%%%%%%%%%%%%%%%%%%%%%%%%%%%%%%%%%%%%%%%%%%%%%%%4.##9",
"###+++++++++~+++++++++++:b+++++++++++++b<++++++++++++++<38q+ ###",
"###   :5.           .7* *7         -1.          k,      .3q  #&&",
"&##   50:           :sq     o.    o86*             ,;        #&e",
"&##   .:      *      :   *; *o     o*   -          ,g   ;,   ##&",
"###           ;         o6s;           -x1         ,,   -o   ###",
"###                     ,f0*           -j-                   ###",
"###                      ,*             ;         *0         ###",
"#y#                                3q              -    h*   ###",
"###                               3H!q                 ,,    ###",
"###         o             .,     :UKJH3  o      o            ###",
"###         uo            7t      3UH3   0     ;0-           ###",
"###    ;1             1         .5 3q          8x6           ###",
"###    18             6         *u             ,8,    ::    :##&",
"###;                                                 opp:  ;h&##",
"###k;                                      o*        obbo ;kA&>#",
"###g*     :o          7 .;          -; ;. .6j*  f,    ,.  oh^>>#",
"###o z    ..         7Pt .    uo -0-js;,   37. fau         <g###",
"###  * ;1             6,      o   o 71         ,u*          .###",
"###         z*            8u             a                   ###",
"###                                                          e##",
"#######################e#######################dvd#####dvd######",
"#############################################&>#d####&>#d#######",
"##############&&####9###########################################"
};
