/* XPM */
static char *result[] = {
/* columns rows colors chars-per-pixel */
"64 64 59 1 ",
"  c #110632",
". c #2A1A7D",
"X c #413173",
"o c gray45",
"O c #190A4A",
"+ c #8EBB1A",
"@ c #11072A",
"# c #AEAEAE",
"$ c #200C5D",
"% c #101010",
"& c #1E1F1E",
"* c #9B9B9B",
"= c #4E3C85",
"- c #C04727",
"; c #FEE961",
": c #110B22",
"> c #009BDD",
", c #506714",
"< c #100D18",
"1 c #D9783F",
"2 c #11062D",
"3 c #293211",
"4 c #23E9F5",
"5 c #8D75DC",
"6 c #717171",
"7 c #8CB81A",
"8 c #100B1D",
"9 c #585858",
"0 c #170B3C",
"q c #342F45",
"w c #445713",
"e c #A3A4A7",
"r c #81A918",
"t c #BAB9A8",
"y c #9499B0",
"u c #6C8D17",
"i c #141512",
"p c #B59090",
"a c #046BB7",
"s c #FAF08C",
"d c #FEB02D",
"f c #150D2F",
"g c gray58",
"h c #D5D09D",
"j c #BB6D6D",
"k c #1F37BB",
"l c #6D78B4",
"z c #CD1010",
"x c #F77815",
"c c #1F1932",
"v c gray16",
"b c #5F5F61",
"n c #587415",
"m c #B0A3A3",
"M c #8B8B8B",
"N c #1F0C56",
"B c #251868",
"V c #D76914",
"C c #06516E",
/* pixels */
"             OO       OO                      OO      OO        ",
"   $        $$O X    $$O           $         $$O     $$O        ",
" X      =  ..$ X5X  $.$   5      X      =   $.$     $.$   =     ",
"          $..   X  O$$      1  =           O$$     O$$      1  =",
"         4$$       OO      1;1           4 OO      OO      1;1  ",
"    .    $O                 1$      .    $                  1$  ",
"            =              $.$                             $.$  ",
"  ;                $       $$     ;        $       $       $$   ",
"      $$      .      .                $$     X       X          ",
"      $.$              =              $.$      =       =        ",
"    a  $$    4               OO        $$                    OO ",
"=   >        $    .         $$O .   >     .       .         $$O ",
"   >4>  X                  O$$     >4>  X                  O$$  ",
"    >  X5X          ;      OO       >  X5X  ;       ;      OO   ",
"    a   X $    $$                       X                       ",
"          $   $.$                                               ",
"   OO                     OO       OO                     OO    ",
"  $$O        OOO  =  x   $0:8c8888ff0        OOO  5  -   $$O X  ",
" $.$         $.$    x;x ..@%%%%%%%%%:        $.$    -1- ..$ X5X ",
"O$$        = $$$  $  V@OBB&333333333&@@@@2 = $$$  $  - $..   X  ",
"OO           OOO- $$ <%%%%u777777777w%%%%:   OOO- $$  O$$       ",
"               -;-$$ <%%%%u+++++++++w%%%%:     -;-$$  OO        ",
"             $O - $$ <%3nnr+++++++++un,i%:   $O - $$     =      ",
"   $                 <%w+++++++++++++7ri%:                      ",
" X      .         422&3w++++++++++++++r33c22      4       =     ",
"          OO X   .:%%ur7++++++++++++++7rrw%<2X   .   =      1  =",
"         4$OX5X   :%%u+++++++++++++++++++,%<X5X            1;1  ",
"    .    $$f:q::::<%%w,,,,,,,,,,,,,,,,,,,3%%8q:::::O$       1$  ",
"          O<%%%%%%%%%%%%%%%%%%%%%%%%%%%%%%%%%%%%%%%f$$$    $.$  ",
"  ;    2222&&&&&&&&&&&&&&&&&&&&&&&&&&&&&&&&&&&&&&&&:N.N2   $$   ",
"     28<<<&M***************************************b<<<<8       ",
"     2<%%%&*#######################################6%%%%8       ",
"   @:c9999be#####################mjjp#elly##hht####M9999q::2 OO ",
"=  8%ve##########################pzzj#ykkl#tssh#########o%%@$$O ",
"   Cive##########################pzzj#ykkl#tssh#########oii0$$  ",
"2<<bgg###########################mppm##yye##ttt#########eggq<8  ",
"@%%6#######################################################q%<  ",
"@%%9ooooooooooooooooooooooooooooooooooooooooooooo666666666ov%<  ",
"@%%%%%%%%%%%%%%%%%%%%%%%%%%%%%%%%%%%%%%%%%%%%%%%%%%%%%%%%%%%%<  ",
"@%%%%%%%%%%%%%%%%%%%%%%%%%%%%%%%%%%%%%%%%%%%%%%%%%%%%%%%%%%%%<  ",
" @@@@@OO@@@@@@@@@@@@@@@@@@@@@@@q@@@@@@OO@@@@@@00@@@@@@00@@@@@2 X",
"                        X  4                 $$O     $$O   4    ",
"           OO       >  X5X    $$            $.$     $.$       $$",
"$   -   X  O$$    X>4>X X     $.$   -   X  O$$     O$$        $.",
"$  -;- X5X  $$O =   >          $$  -;- X5X OO      OO          $",
"    -   X    OO        $$  .        -   X                  =    ",
"        OO            $.$               OO                      ",
"     OO$$O            $$             OO$$O $       $            ",
" =  O$$$$  $$     ;         .    5  O$$$$    X       X      .   ",
"    O$.$O  $.$                      O$.$O      =       =        ",
"    $$$$O   1$      .    $          $$$$O                       ",
"   O$$OO   1;1           >         O$$OO  .       .             ",
"   OO >     1  =                   OO >                         ",
"     >4>  5      X      =  $$  .    a>4>a   ;       ;      $$  $",
"      > .          $       $.$        > .                  $.$  ",
"                            $$O                             $$O ",
"             OO       $.$    OO                              OO ",
"        =  = O$$      $$   d            $    OOO     OOO   -    ",
"      $$      $$O         d;d         $$     $.$     $.$  -;-   ",
"   = O$$       OO  =       d       = O$$   = $$$   = $$$   -    ",
"     OOO                     .       OOO     OOO-    OOO-    .  ",
"                       .                       -;-     -;-      ",
"                                             $O -    $O -       ",
"              $$    X                                           "
};
